<svg width="156.000000" height="88.000000" viewBox="0 0 156 88" fill="none" xmlns="http://www.w3.org/2000/svg" xmlns:xlink="http://www.w3.org/1999/xlink">
	<desc>
			Created with Pixso.
	</desc>
	<defs>
		<clipPath id="clip1_778">
			<rect id="arrow-down-right" width="28.000000" height="28.000000" transform="matrix(-1 0 0 1 50 22)" fill="white" fill-opacity="0"/>
		</clipPath>
		<clipPath id="clip37_324">
			<rect id="arrow-down-right" width="28.000000" height="28.000000" transform="matrix(-1 0 0 1 50 22)" fill="white" fill-opacity="0"/>
		</clipPath>
	</defs>
	<rect id="Frame 3" rx="31.000000" width="62.000000" height="62.000000" transform="translate(5.000000 5.000000)" fill="#5B94E9" fill-opacity="1.000000"/>
	<rect id="arrow-down-right" width="28.000000" height="28.000000" transform="matrix(-1 0 0 1 50 22)" fill="#FFFFFF" fill-opacity="0"/>
	<g clip-path="url(#clip37_324)">
		<path id="Vector" d="M41.83 30.16L30.16 41.83" stroke="#FFFFFF" stroke-opacity="1.000000" stroke-width="2.000000" stroke-linejoin="round" stroke-linecap="round"/>
		<path id="Vector" d="M30.16 31.33L30.16 41.83L40.66 41.83" stroke="#FFFFFF" stroke-opacity="1.000000" stroke-width="2.000000" stroke-linejoin="round" stroke-linecap="round"/>
	</g>
	<rect id="Frame 3" rx="31.000000" width="62.000000" height="62.000000" transform="translate(5.000000 5.000000)" stroke="#FFFFFF" stroke-opacity="1.000000" stroke-width="10.000000"/>
	<path id="Receive" d="M43.16 77.13Q43.12 77.02 43.12 76.9Q43.12 76.72 43.18 76.58Q43.24 76.45 43.35 76.35Q43.49 76.22 43.65 76.16Q43.76 76.12 43.89 76.12Q44.07 76.12 44.21 76.19Q44.33 76.25 44.44 76.35Q44.54 76.45 44.6 76.57Q44.66 76.72 44.66 76.9Q44.66 77.02 44.62 77.14Q44.57 77.3 44.44 77.44Q44.33 77.54 44.2 77.6Q44.06 77.67 43.89 77.67Q43.77 77.67 43.66 77.63Q43.49 77.57 43.35 77.44Q43.21 77.3 43.16 77.13ZM14.24 86L14.24 76.2L16.9 76.2Q17.85 76.2 18.6 76.55Q19.1 76.79 19.46 77.16Q19.64 77.35 19.79 77.57Q19.84 77.64 19.88 77.72Q20.23 78.33 20.23 79.14Q20.23 79.88 19.93 80.47Q19.87 80.58 19.79 80.7Q19.64 80.92 19.45 81.11Q19.09 81.48 18.6 81.72Q18.27 81.88 17.9 81.96L20.82 86L19.35 86L16.62 82.07L15.43 82.07L15.43 86L14.24 86ZM15.43 81.03L16.9 81.03Q17.53 81.03 18.01 80.8Q18.36 80.64 18.59 80.38Q18.69 80.28 18.77 80.16Q19.04 79.74 19.04 79.14Q19.04 78.53 18.77 78.11Q18.69 77.99 18.58 77.88Q18.35 77.63 18.01 77.47Q17.53 77.25 16.9 77.25L15.43 77.25L15.43 81.03ZM26.3 85.72Q25.54 86.14 24.5 86.14Q23.78 86.14 23.18 85.86Q23.04 85.79 22.91 85.71Q22.67 85.56 22.47 85.37Q22.09 85.02 21.83 84.53Q21.45 83.77 21.45 82.78Q21.45 81.77 21.85 81.01Q22.08 80.57 22.42 80.25Q22.66 80.01 22.97 79.84Q23.01 79.81 23.04 79.79Q23.74 79.42 24.64 79.42Q25.59 79.42 26.27 79.82Q26.51 79.95 26.71 80.14Q27.08 80.47 27.31 80.96Q27.68 81.7 27.68 82.72Q27.68 82.82 27.67 82.92Q27.67 83.03 27.67 83.06L22.6 83.06Q22.64 83.59 22.82 84Q22.99 84.37 23.27 84.62Q23.38 84.72 23.52 84.81Q23.98 85.09 24.64 85.09Q25.28 85.09 25.77 84.82Q25.79 84.81 25.8 84.8Q26.31 84.51 26.66 83.92L27.57 84.5Q27.15 85.17 26.54 85.57Q26.42 85.65 26.3 85.72ZM22.64 82.1Q22.7 81.74 22.84 81.45Q23.02 81.09 23.3 80.84Q23.41 80.75 23.54 80.67Q24 80.4 24.64 80.4Q25.19 80.4 25.59 80.63L25.59 80.64Q25.77 80.74 25.92 80.88Q26.1 81.06 26.23 81.29Q26.42 81.64 26.46 82.1L22.64 82.1ZM29.99 81.62Q29.72 82.13 29.72 82.78Q29.72 83.43 30 83.94Q30 83.96 30.01 83.97Q30.18 84.26 30.41 84.49Q30.58 84.66 30.79 84.79Q30.9 84.85 31.01 84.9Q31.42 85.09 31.92 85.09Q32.44 85.09 32.89 84.93Q33.35 84.76 33.69 84.49Q34.02 84.22 34.16 83.91L34.16 85.31Q33.83 85.7 33.2 85.92Q32.87 86.03 32.53 86.09Q32.23 86.14 31.92 86.14Q31.19 86.14 30.57 85.87Q30.39 85.8 30.23 85.7Q29.88 85.5 29.6 85.23Q29.27 84.92 29.03 84.5Q28.96 84.38 28.9 84.25Q28.59 83.59 28.59 82.78Q28.59 81.89 28.95 81.19Q28.99 81.11 29.03 81.04Q29.26 80.65 29.57 80.35Q29.86 80.06 30.23 79.85Q30.39 79.75 30.57 79.68Q31.19 79.42 31.92 79.42Q32.22 79.42 32.52 79.46Q32.86 79.52 33.2 79.63Q33.83 79.85 34.16 80.24L34.16 81.64Q34.02 81.32 33.69 81.05Q33.35 80.79 32.89 80.63Q32.44 80.46 31.92 80.46Q31.4 80.46 30.97 80.66Q30.88 80.71 30.79 80.76Q30.62 80.86 30.46 81Q30.2 81.24 30.01 81.58Q30 81.6 29.99 81.62ZM40.2 85.72Q39.44 86.14 38.4 86.14Q37.68 86.14 37.09 85.86Q36.95 85.79 36.81 85.71Q36.57 85.56 36.37 85.37Q35.99 85.02 35.74 84.53Q35.35 83.77 35.35 82.78Q35.35 81.77 35.75 81.01Q35.98 80.57 36.32 80.25Q36.57 80.01 36.87 79.84Q36.91 79.81 36.94 79.79Q37.64 79.42 38.54 79.42Q39.5 79.42 40.17 79.82Q40.41 79.95 40.61 80.14Q40.98 80.47 41.22 80.96Q41.58 81.7 41.58 82.72Q41.58 82.82 41.57 82.92Q41.57 83.03 41.57 83.06L36.5 83.06Q36.54 83.59 36.72 84Q36.89 84.37 37.17 84.62Q37.29 84.72 37.42 84.81Q37.89 85.09 38.54 85.09Q39.18 85.09 39.67 84.82Q39.69 84.81 39.7 84.8Q40.21 84.51 40.56 83.92L41.47 84.5Q41.05 85.17 40.45 85.57Q40.33 85.65 40.2 85.72ZM36.54 82.1Q36.61 81.74 36.74 81.45Q36.92 81.09 37.2 80.84Q37.32 80.75 37.45 80.67Q37.9 80.4 38.54 80.4Q39.09 80.4 39.49 80.63L39.5 80.64Q39.67 80.74 39.82 80.88Q40 81.06 40.13 81.29Q40.33 81.64 40.36 82.1L36.54 82.1ZM57 85.72Q56.24 86.14 55.2 86.14Q54.48 86.14 53.89 85.86Q53.75 85.79 53.61 85.71Q53.37 85.56 53.17 85.37Q52.79 85.02 52.54 84.53Q52.15 83.77 52.15 82.78Q52.15 81.77 52.55 81.01Q52.78 80.57 53.12 80.25Q53.37 80.01 53.67 79.84Q53.71 79.81 53.74 79.79Q54.44 79.42 55.34 79.42Q56.3 79.42 56.97 79.82Q57.21 79.95 57.41 80.14Q57.78 80.47 58.02 80.96Q58.38 81.7 58.38 82.72Q58.38 82.82 58.37 82.92Q58.37 83.03 58.37 83.06L53.3 83.06Q53.34 83.59 53.52 84Q53.69 84.37 53.97 84.62Q54.09 84.72 54.22 84.81Q54.69 85.09 55.34 85.09Q55.98 85.09 56.47 84.82Q56.49 84.81 56.5 84.8Q57.01 84.51 57.36 83.92L58.27 84.5Q57.85 85.17 57.25 85.57Q57.13 85.65 57 85.72ZM53.34 82.1Q53.41 81.74 53.54 81.45Q53.72 81.09 54 80.84Q54.12 80.75 54.25 80.67Q54.7 80.4 55.34 80.4Q55.89 80.4 56.29 80.63L56.3 80.64Q56.47 80.74 56.62 80.88Q56.8 81.06 56.93 81.29Q57.13 81.64 57.16 82.1L53.34 82.1ZM43.33 86L43.33 79.56L44.45 79.56L44.45 86L43.33 86ZM48.79 86.48L45.71 79.56L46.97 79.56L48.79 84.1L50.61 79.56L51.87 79.56L48.79 86.48Z" fill="#1D1D1F" fill-opacity="1.000000" fill-rule="evenodd"/>
	<rect id="Frame 3" rx="31.000000" width="62.000000" height="62.000000" transform="translate(89.000000 5.000000)" fill="#5B94E9" fill-opacity="1.000000"/>
	<path id="Oval" d="M123.91 29.58C123.91 27.32 122.08 25.5 119.83 25.5C117.57 25.5 115.75 27.32 115.75 29.58C115.75 31.83 117.57 33.66 119.83 33.66C122.08 33.66 123.91 31.83 123.91 29.58Z" stroke="#FFFFFF" stroke-opacity="1.000000" stroke-width="2.000000" stroke-linejoin="round"/>
	<path id="Vector" d="M128.6 39.52L128.58 39.5C128.58 39.08 128.91 38.75 129.33 38.75C129.75 38.75 130.08 39.08 130.08 39.5L130.06 39.52L128.6 39.52ZM130.06 45.31L130.08 45.33C130.08 45.75 129.75 46.08 129.33 46.08C128.91 46.08 128.58 45.75 128.58 45.33L128.6 45.31L130.06 45.31Z" fill="#D8D8D8" fill-opacity="0" fill-rule="nonzero"/>
	<path id="Vector" d="M129.33 39.5L129.33 45.33" stroke="#FFFFFF" stroke-opacity="1.000000" stroke-width="1.500000" stroke-linejoin="round" stroke-linecap="round"/>
	<path id="Vector" d="M132.16 41.3L132.19 41.3C132.49 41.6 132.49 42.06 132.19 42.36C131.89 42.66 131.43 42.66 131.13 42.36L131.13 42.33L132.16 41.3ZM127.53 42.33L127.53 42.36C127.23 42.66 126.76 42.66 126.47 42.36C126.17 42.06 126.17 41.6 126.47 41.3L126.49 41.3L127.53 42.33Z" fill="#D8D8D8" fill-opacity="0" fill-rule="nonzero"/>
	<path id="Vector" d="M127 41.83L129.33 39.5L131.66 41.83" stroke="#FFFFFF" stroke-opacity="1.000000" stroke-width="1.500000" stroke-linejoin="round" stroke-linecap="round"/>
	<path id="Rectangle 139" d="M123.5 46.5L111.25 46.5C111.25 46.34 111.25 46.26 111.25 46.2C111.32 41.88 114.8 38.4 119.11 38.33C119.18 38.33 119.26 38.33 119.41 38.33L123.5 38.33" stroke="#FFFFFF" stroke-opacity="1.000000" stroke-width="2.000000" stroke-linejoin="round" stroke-linecap="round"/>
	<rect id="Frame 3" rx="31.000000" width="62.000000" height="62.000000" transform="translate(89.000000 5.000000)" stroke="#FFFFFF" stroke-opacity="1.000000" stroke-width="10.000000"/>
	<path id="Send" d="M133 80.67L133 75.07L134.12 75.07L134.12 86L133 86L133 84.88Q132.72 85.36 132.31 85.66Q132.26 85.7 132.22 85.73Q132.11 85.8 131.99 85.86Q131.47 86.14 130.8 86.14Q130.23 86.14 129.72 85.96Q129.46 85.87 129.21 85.73Q128.95 85.59 128.74 85.4Q128.33 85.06 128.04 84.57Q127.61 83.81 127.61 82.78Q127.61 81.73 128.04 80.98Q128.33 80.49 128.73 80.15Q128.95 79.96 129.21 79.82Q129.46 79.68 129.72 79.59Q130.23 79.42 130.8 79.42Q131.47 79.42 131.99 79.69Q132.11 79.75 132.22 79.82Q132.27 79.86 132.32 79.89Q132.72 80.19 133 80.67ZM133 82.78Q133 82.03 132.69 81.52Q132.42 81.07 132.03 80.81Q131.97 80.77 131.91 80.73Q131.49 80.5 131.06 80.47Q131 80.46 130.94 80.46Q130.58 80.46 130.25 80.57Q130.04 80.63 129.85 80.73Q129.69 80.82 129.54 80.93Q129.25 81.17 129.05 81.52Q128.75 82.03 128.75 82.78Q128.75 83.52 129.05 84.04Q129.24 84.38 129.53 84.61Q129.68 84.73 129.85 84.82Q130.04 84.92 130.25 84.98Q130.58 85.09 130.94 85.09Q131 85.09 131.06 85.08Q131.49 85.05 131.91 84.82Q131.98 84.78 132.04 84.74Q132.43 84.48 132.69 84.04Q133 83.52 133 82.78ZM105.42 83.67L106.37 83.03Q106.71 83.62 107.08 84.06Q107.45 84.51 107.91 84.76Q107.94 84.78 107.96 84.79Q108.41 85.01 108.96 85.01Q109.63 85.01 110.07 84.7Q110.15 84.64 110.22 84.58Q110.43 84.39 110.55 84.15Q110.7 83.85 110.7 83.48Q110.7 82.82 110.39 82.43Q110.08 82.03 109.59 81.79Q109.09 81.54 108.53 81.35Q108.16 81.22 107.72 81.02Q107.27 80.81 106.86 80.5Q106.75 80.41 106.65 80.31Q106.39 80.06 106.2 79.72Q105.94 79.26 105.94 78.59Q105.94 78.06 106.13 77.62Q106.2 77.45 106.3 77.29Q106.41 77.12 106.54 76.97Q106.85 76.62 107.31 76.38Q107.96 76.06 108.78 76.06Q109.58 76.06 110.17 76.36Q110.72 76.63 111.11 77.04Q111.15 77.08 111.19 77.13Q111.61 77.59 111.85 78.11L110.83 78.7Q110.64 78.34 110.36 77.99Q110.27 77.87 110.17 77.78Q109.96 77.57 109.68 77.42Q109.29 77.19 108.71 77.19Q107.91 77.19 107.55 77.58Q107.3 77.84 107.22 78.15Q107.19 78.29 107.19 78.43Q107.19 78.65 107.24 78.85Q107.3 79.02 107.39 79.19Q107.61 79.53 108.1 79.83Q108.6 80.13 109.45 80.42Q109.85 80.56 110.28 80.79Q110.3 80.8 110.32 80.81Q110.73 81.03 111.08 81.36Q111.11 81.38 111.14 81.41Q111.47 81.74 111.69 82.18Q111.93 82.66 111.93 83.34Q111.93 83.98 111.68 84.5Q111.54 84.8 111.34 85.05Q111.19 85.23 111.01 85.38Q110.89 85.48 110.76 85.57Q110.43 85.8 110.05 85.94Q109.91 85.99 109.77 86.03Q109.36 86.14 108.92 86.14Q108.34 86.14 107.82 85.95Q107.63 85.89 107.44 85.79Q107.14 85.64 106.87 85.44Q106.54 85.19 106.25 84.88Q105.74 84.31 105.42 83.67ZM117.9 85.72Q117.14 86.14 116.1 86.14Q115.38 86.14 114.79 85.86Q114.65 85.79 114.51 85.71Q114.27 85.56 114.07 85.37Q113.69 85.02 113.44 84.53Q113.05 83.77 113.05 82.78Q113.05 81.77 113.45 81.01Q113.68 80.57 114.02 80.25Q114.27 80.01 114.57 79.84Q114.61 79.81 114.64 79.79Q115.34 79.42 116.24 79.42Q117.2 79.42 117.87 79.82Q118.11 79.95 118.31 80.14Q118.68 80.47 118.92 80.96Q119.28 81.7 119.28 82.72Q119.28 82.82 119.27 82.92Q119.27 83.03 119.27 83.06L114.2 83.06Q114.24 83.59 114.42 84Q114.59 84.37 114.87 84.62Q114.99 84.72 115.12 84.81Q115.59 85.09 116.24 85.09Q116.88 85.09 117.37 84.82Q117.39 84.81 117.4 84.8Q117.91 84.51 118.26 83.92L119.17 84.5Q118.75 85.17 118.15 85.57Q118.03 85.65 117.9 85.72ZM114.24 82.1Q114.31 81.74 114.44 81.45Q114.62 81.09 114.9 80.84Q115.02 80.75 115.15 80.67Q115.6 80.4 116.24 80.4Q116.79 80.4 117.19 80.63L117.2 80.64Q117.37 80.74 117.52 80.88Q117.7 81.06 117.83 81.29Q118.03 81.64 118.06 82.1L114.24 82.1ZM124.95 86L124.95 82.07Q124.95 81.28 124.6 80.87Q124.53 80.79 124.45 80.73Q124.12 80.46 123.58 80.46Q123.09 80.46 122.72 80.67Q122.53 80.77 122.38 80.92Q122.24 81.06 122.14 81.24Q121.94 81.6 121.94 82.07L121.94 86L120.82 86L120.82 79.56L121.94 79.56L121.94 80.56Q122.26 79.98 122.75 79.7Q122.79 79.67 122.83 79.65Q123.29 79.42 123.86 79.42Q124.55 79.42 125.05 79.73Q125.28 79.88 125.48 80.1Q125.5 80.12 125.53 80.15Q126.07 80.82 126.07 81.93L126.07 86L124.95 86Z" fill="#1D1D1F" fill-opacity="1.000000" fill-rule="evenodd"/>
</svg>
