<svg width="72.000000" height="72.000000" viewBox="0 0 72 72" fill="none" xmlns="http://www.w3.org/2000/svg" xmlns:xlink="http://www.w3.org/1999/xlink">
	<desc>
			Created with Pixso.
	</desc>
	<defs/>
	<rect id="Frame 3" rx="31.000000" width="62.000000" height="62.000000" transform="translate(5.000000 5.000000)" fill="#5B94E9" fill-opacity="1.000000"/>
	<path id="Oval" d="M39.91 29.58C39.91 27.32 38.08 25.5 35.83 25.5C33.57 25.5 31.75 27.32 31.75 29.58C31.75 31.83 33.57 33.66 35.83 33.66C38.08 33.66 39.91 31.83 39.91 29.58Z" stroke="#FFFFFF" stroke-opacity="1.000000" stroke-width="2.000000" stroke-linejoin="round"/>
	<path id="Vector" d="M44.6 39.52L44.58 39.5C44.58 39.08 44.91 38.75 45.33 38.75C45.75 38.75 46.08 39.08 46.08 39.5L46.06 39.52L44.6 39.52ZM46.06 45.31L46.08 45.33C46.08 45.75 45.75 46.08 45.33 46.08C44.91 46.08 44.58 45.75 44.58 45.33L44.6 45.31L46.06 45.31Z" fill="#D8D8D8" fill-opacity="0" fill-rule="nonzero"/>
	<path id="Vector" d="M45.33 39.5L45.33 45.33" stroke="#FFFFFF" stroke-opacity="1.000000" stroke-width="1.500000" stroke-linejoin="round" stroke-linecap="round"/>
	<path id="Vector" d="M48.16 41.3L48.19 41.3C48.49 41.6 48.49 42.06 48.19 42.36C47.9 42.66 47.43 42.66 47.13 42.36L47.13 42.33L48.16 41.3ZM43.53 42.33L43.53 42.36C43.23 42.66 42.76 42.66 42.46 42.36C42.17 42.06 42.17 41.6 42.46 41.3L42.49 41.3L43.53 42.33Z" fill="#D8D8D8" fill-opacity="0" fill-rule="nonzero"/>
	<path id="Vector" d="M43 41.83L45.33 39.5L47.66 41.83" stroke="#FFFFFF" stroke-opacity="1.000000" stroke-width="1.500000" stroke-linejoin="round" stroke-linecap="round"/>
	<path id="Rectangle 139" d="M39.5 46.5L27.25 46.5C27.25 46.34 27.25 46.26 27.25 46.2C27.32 41.88 30.8 38.4 35.11 38.33C35.18 38.33 35.26 38.33 35.41 38.33L39.5 38.33" stroke="#FFFFFF" stroke-opacity="1.000000" stroke-width="2.000000" stroke-linejoin="round" stroke-linecap="round"/>
	<rect id="Frame 3" rx="31.000000" width="62.000000" height="62.000000" transform="translate(5.000000 5.000000)" stroke="#FFFFFF" stroke-opacity="1.000000" stroke-width="10.000000"/>
</svg>
