<svg width="393.000000" height="53.000000" viewBox="0 0 393 53" fill="none" xmlns="http://www.w3.org/2000/svg" xmlns:xlink="http://www.w3.org/1999/xlink">
	<desc>
			Created with Pixso.
	</desc>
	<defs/>
	<path id="Time" d="M39.52 34.75Q40.51 35.29 41.78 35.29Q43.12 35.29 44.12 34.7Q44.82 34.29 45.35 33.59Q46.64 31.89 46.64 28.87Q46.64 26.59 45.79 25.08Q45.29 24.13 44.51 23.55Q44.35 23.43 44.17 23.32Q44.03 23.24 43.88 23.16Q42.97 22.72 41.85 22.72Q40.44 22.72 39.39 23.34Q38.99 23.57 38.65 23.9Q38.16 24.36 37.86 24.93Q37.4 25.8 37.4 26.93Q37.4 28.04 37.86 28.9Q38.12 29.38 38.52 29.78Q38.94 30.21 39.44 30.47Q40.28 30.91 41.34 30.91Q42.31 30.91 43.07 30.52Q43.14 30.48 43.21 30.44Q43.58 30.23 43.87 29.94Q44.22 29.59 44.45 29.12L44.59 29.12Q44.59 31.18 43.85 32.33Q43.44 32.97 42.86 33.26Q42.39 33.49 41.8 33.49Q41.17 33.49 40.68 33.23Q40.57 33.17 40.47 33.1Q40.24 32.94 40.07 32.73Q39.82 32.42 39.7 32.02L37.57 32.02Q37.71 32.84 38.14 33.48Q38.47 34 38.98 34.39Q39.24 34.59 39.52 34.75ZM59.19 32.76L59.19 35L61.24 35L61.24 32.76L62.86 32.76L62.86 30.95L61.24 30.95L61.24 23.02L58.22 23.02Q54.8 28.16 53.33 30.85L53.33 32.76L59.19 32.76ZM67.35 25.18L67.35 35L69.49 35L69.49 23.02L67.36 23.02L64.23 25.21L64.23 27.27L67.21 25.18L67.35 25.18ZM40.66 28.92Q40.39 28.77 40.16 28.55Q39.94 28.32 39.79 28.06Q39.5 27.54 39.5 26.86Q39.5 26.28 39.73 25.81Q39.89 25.47 40.18 25.18Q40.47 24.89 40.81 24.73Q41.28 24.5 41.87 24.5Q42.43 24.5 42.89 24.72Q43.25 24.89 43.55 25.19Q43.84 25.48 44 25.83Q44.23 26.31 44.23 26.89Q44.23 27.51 43.98 27.99Q43.82 28.3 43.56 28.55Q43.33 28.78 43.06 28.92Q42.54 29.21 41.86 29.21Q41.18 29.21 40.66 28.92ZM55.32 31L55.32 30.88Q57.16 27.63 59.1 24.76L59.22 24.76L59.22 31L55.32 31ZM49.3 27.33Q49.6 27.5 49.99 27.5Q50.4 27.5 50.71 27.32Q50.84 27.24 50.95 27.13Q51.09 26.99 51.17 26.83Q51.32 26.55 51.32 26.2Q51.32 25.82 51.16 25.53Q51.08 25.38 50.95 25.25Q50.84 25.14 50.71 25.07Q50.4 24.88 49.99 24.88Q49.6 24.88 49.3 25.05Q49.16 25.13 49.04 25.25Q48.9 25.39 48.82 25.54Q48.66 25.83 48.66 26.2Q48.66 26.55 48.81 26.82Q48.89 26.99 49.04 27.13Q49.16 27.25 49.3 27.33ZM49.31 33.56Q49.61 33.73 49.99 33.73Q50.4 33.73 50.7 33.55Q50.83 33.47 50.95 33.35Q51.09 33.21 51.18 33.04Q51.32 32.77 51.32 32.41Q51.32 32.04 51.16 31.75Q51.08 31.6 50.95 31.47Q50.84 31.36 50.71 31.28Q50.4 31.1 49.99 31.1Q49.6 31.1 49.3 31.27Q49.16 31.35 49.04 31.47Q48.9 31.6 48.82 31.76Q48.66 32.04 48.66 32.41Q48.66 32.76 48.8 33.03Q48.89 33.21 49.04 33.35Q49.16 33.48 49.31 33.56Z" fill="#1D1D1F" fill-opacity="1.000000" fill-rule="evenodd"/>
	<g opacity="0.350000" style="mix-blend-mode:normal">
		<rect id="Border" x="340.171997" y="22.500000" rx="3.500000" width="24.000000" height="12.000000" stroke="#1D1D1F" stroke-opacity="1.000000" stroke-width="1.000000"/>
	</g>
	<g opacity="0.400000" style="mix-blend-mode:normal">
		<path id="Cap" d="M365.67 26.66L365.67 30.66C366.47 30.32 367 29.53 367 28.66C367 27.79 366.47 27 365.67 26.66Z" fill="#1D1D1F" fill-opacity="1.000000" fill-rule="nonzero"/>
	</g>
	<rect id="Capacity" x="341.671997" y="24.000000" rx="1.333333" width="21.000000" height="9.000000" fill="#1D1D1F" fill-opacity="1.000000"/>
	<path id="Wifi" d="M330.466 27.5745C328.678 25.9651 326.306 25.0674 323.839 25.0674C321.372 25.0674 319 25.9648 317.212 27.5745C317.078 27.699 316.862 27.6973 316.73 27.5708L315.443 26.3411C315.375 26.2771 315.338 26.1904 315.339 26.1001C315.339 26.0098 315.378 25.9236 315.446 25.8604C320.138 21.6023 327.54 21.6023 332.232 25.8604C332.3 25.9236 332.338 26.01 332.339 26.1001C332.339 26.1904 332.302 26.2771 332.235 26.3411L330.948 27.5708C330.815 27.697 330.6 27.6987 330.466 27.5745ZM323.837 29.1753C325.184 29.175 326.482 29.6733 327.479 30.5728C327.614 30.7004 327.827 30.6978 327.958 30.5667L329.235 29.2825C329.302 29.2151 329.34 29.1235 329.339 29.0288C329.338 28.9338 329.299 28.843 329.23 28.7771C326.192 25.9634 321.486 25.9634 318.448 28.7771C318.379 28.843 318.34 28.9338 318.339 29.0288C318.338 29.1238 318.375 29.2151 318.443 29.2825L319.719 30.5667C319.85 30.6978 320.063 30.7004 320.198 30.5728C321.195 29.6738 322.492 29.1758 323.837 29.1753ZM326.339 31.8943C326.341 31.9968 326.304 32.0957 326.237 32.1677L324.078 34.5571C324.015 34.6272 323.929 34.6667 323.839 34.6667C323.749 34.6667 323.663 34.6272 323.599 34.5571L321.44 32.1677C321.374 32.0957 321.337 31.9968 321.339 31.8943C321.341 31.7917 321.381 31.6946 321.451 31.626C322.829 30.3469 324.848 30.3469 326.227 31.626C326.296 31.6948 326.337 31.7917 326.339 31.8943Z" clip-rule="evenodd" fill="#1D1D1F" fill-opacity="1.000000" fill-rule="evenodd"/>
	<path id="Cellular Connection" d="M307.939 23.7917C307.939 23.1704 307.461 22.6667 306.872 22.6667L305.805 22.6667C305.216 22.6667 304.739 23.1704 304.739 23.7917L304.739 33.5417C304.739 34.1631 305.216 34.6667 305.805 34.6667L306.872 34.6667C307.461 34.6667 307.939 34.1631 307.939 33.5417L307.939 23.7917ZM300.505 25.0667L301.572 25.0667C302.161 25.0667 302.639 25.5825 302.639 26.2188L302.639 33.5146C302.639 34.1509 302.161 34.6667 301.572 34.6667L300.505 34.6667C299.916 34.6667 299.439 34.1509 299.439 33.5146L299.439 26.2188C299.439 25.5825 299.916 25.0667 300.505 25.0667ZM296.172 27.6667L295.105 27.6667C294.516 27.6667 294.039 28.189 294.039 28.8335L294.039 33.5C294.039 34.1445 294.516 34.6667 295.105 34.6667L296.172 34.6667C296.761 34.6667 297.239 34.1445 297.239 33.5L297.239 28.8335C297.239 28.189 296.761 27.6667 296.172 27.6667ZM290.872 30.0667L289.805 30.0667C289.216 30.0667 288.739 30.5815 288.739 31.2168L288.739 33.5168C288.739 34.1519 289.216 34.6667 289.805 34.6667L290.872 34.6667C291.461 34.6667 291.939 34.1519 291.939 33.5168L291.939 31.2168C291.939 30.5815 291.461 30.0667 290.872 30.0667Z" clip-rule="evenodd" fill="#1D1D1F" fill-opacity="1.000000" fill-rule="evenodd"/>
</svg>
