<svg width="48.000000" height="48.000000" viewBox="0 0 48 48" fill="none" xmlns="http://www.w3.org/2000/svg" xmlns:xlink="http://www.w3.org/1999/xlink">
	<desc>
			Created with Pixso.
	</desc>
	<defs>
		<clipPath id="clip8_444">
			<rect id="Frame 19" rx="24.000000" width="48.000000" height="48.000000" fill="white" fill-opacity="0"/>
		</clipPath>
	</defs>
	<rect id="Frame 19" rx="24.000000" width="48.000000" height="48.000000" fill="#F7F7F7" fill-opacity="1.000000"/>
	<g clip-path="url(#clip8_444)">
		<path id="Vector" d="M24.15 18.72C26.3 18.72 28.01 20.02 28.66 21.97L33 21.97C32.21 17.81 28.73 15 24.18 15C19.03 15 15 18.85 15 24.01C15 29.17 18.92 33 24.18 33C28.62 33 32.18 30.18 32.96 25.99L28.66 25.99C28.04 27.93 26.33 29.27 24.18 29.27C21.21 29.27 19.13 27.03 19.13 24.01C19.13 20.96 21.18 18.72 24.15 18.72Z" fill="#0052FF" fill-opacity="1.000000" fill-rule="nonzero"/>
	</g>
</svg>
