<svg width="40.000000" height="40.000000" viewBox="0 0 40 40" fill="none" xmlns="http://www.w3.org/2000/svg" xmlns:xlink="http://www.w3.org/1999/xlink">
	<desc>
			Created with Pixso.
	</desc>
	<defs>
		<clipPath id="clip8_599">
			<rect id="Frame 541" rx="20.000000" width="40.000000" height="40.000000" fill="white" fill-opacity="0"/>
		</clipPath>
	</defs>
	<rect id="Frame 541" rx="20.000000" width="40.000000" height="40.000000" fill="#F7F7F7" fill-opacity="1.000000"/>
	<g clip-path="url(#clip8_599)">
		<rect id="Iconex/Light/Danger" width="20.000000" height="20.000000" transform="translate(10.000000 10.000000)" fill="#FFFFFF" fill-opacity="0"/>
		<path id="Rectangle 74" d="M14.64 27.91C13 27.91 11.66 26.58 11.66 24.93C11.66 24.43 11.79 23.93 12.04 23.49L17.19 14.21C17.65 13.39 18.44 12.81 19.37 12.62C19.78 12.54 20.21 12.54 20.62 12.62C21.55 12.81 22.34 13.39 22.8 14.21L27.95 23.49C28.2 23.93 28.33 24.43 28.33 24.93C28.33 26.58 27 27.91 25.35 27.91L14.64 27.91Z" stroke="#F23152" stroke-opacity="1.000000" stroke-width="1.500000"/>
		<path id="Line" d="M20 20.83L20 17.5" stroke="#F23152" stroke-opacity="1.000000" stroke-width="1.500000" stroke-linejoin="round" stroke-linecap="round"/>
		<path id="Line" d="M20 23.75L20 23.33" stroke="#F23152" stroke-opacity="1.000000" stroke-width="1.500000" stroke-linejoin="round" stroke-linecap="round"/>
	</g>
</svg>
