<svg width="40.000000" height="40.000000" viewBox="0 0 40 40" fill="none" xmlns="http://www.w3.org/2000/svg" xmlns:xlink="http://www.w3.org/1999/xlink">
	<desc>
			Created with Pixso.
	</desc>
	<defs>
		<clipPath id="clip8_595">
			<rect id="bell-ringing" width="20.000000" height="20.000000" transform="translate(10.000000 10.000000)" fill="white" fill-opacity="0"/>
		</clipPath>
		<clipPath id="clip8_594">
			<rect id="Frame 540" rx="20.000000" width="40.000000" height="40.000000" fill="white" fill-opacity="0"/>
		</clipPath>
	</defs>
	<rect id="Frame 540" rx="20.000000" width="40.000000" height="40.000000" fill="#F7F7F7" fill-opacity="1.000000"/>
	<g clip-path="url(#clip8_594)">
		<rect id="bell-ringing" width="20.000000" height="20.000000" transform="translate(10.000000 10.000000)" fill="#FFFFFF" fill-opacity="0"/>
		<g clip-path="url(#clip8_595)">
			<path id="Vector" d="M18.82 12.98C19.13 12.67 19.55 12.5 20 12.5C20.44 12.5 20.86 12.67 21.17 12.98C21.49 13.3 21.66 13.72 21.66 14.16C22.62 14.61 23.43 15.32 24.02 16.2C24.61 17.08 24.95 18.1 25 19.16L25 21.66C25.06 22.18 25.24 22.68 25.53 23.11C25.82 23.54 26.21 23.9 26.66 24.16L13.33 24.16C13.78 23.9 14.17 23.54 14.46 23.11C14.75 22.68 14.93 22.18 15 21.66L15 19.16C15.04 18.1 15.38 17.08 15.97 16.2C16.56 15.32 17.37 14.61 18.33 14.16C18.33 13.72 18.5 13.3 18.82 12.98Z" stroke="#1D1D1F" stroke-opacity="1.000000" stroke-width="1.500000" stroke-linejoin="round"/>
			<path id="Vector" d="M17.5 24.16L17.5 25C17.5 25.66 17.76 26.29 18.23 26.76C18.7 27.23 19.33 27.5 20 27.5C20.66 27.5 21.29 27.23 21.76 26.76C22.23 26.29 22.5 25.66 22.5 25L22.5 24.16" stroke="#1D1D1F" stroke-opacity="1.000000" stroke-width="1.500000" stroke-linejoin="round" stroke-linecap="round"/>
		</g>
	</g>
</svg>
