<svg width="20.000000" height="20.000000" viewBox="0 0 20 20" fill="none" xmlns="http://www.w3.org/2000/svg" xmlns:xlink="http://www.w3.org/1999/xlink">
	<desc>
			Created with Pixso.
	</desc>
	<defs>
		<clipPath id="clip8_528">
			<rect id="Без названия (1)" width="20.000000" height="20.000000" fill="white" fill-opacity="0"/>
		</clipPath>
	</defs>
	<rect id="Без названия (1)" width="20.000000" height="20.000000" fill="#FFFFFF" fill-opacity="0"/>
	<g clip-path="url(#clip8_528)">
		<path id="Vector" d="M20 10C20 15.52 15.52 20 10 20C4.47 20 0 15.52 0 10C0 4.47 4.47 0 10 0C15.52 0 20 4.47 20 10Z" fill="#26A17B" fill-opacity="1.000000" fill-rule="evenodd"/>
		<path id="Vector" d="M15.46 7.66C14.96 7.31 14.43 6.93 13.9 6.55C13.89 6.55 13.88 6.54 13.87 6.53C13.81 6.48 13.74 6.44 13.66 6.41L13.66 6.41C12.26 6.06 10.86 5.72 9.46 5.37L5.72 4.45L5.62 4.42C5.51 4.39 5.38 4.36 5.24 4.37C5.21 4.38 5.17 4.39 5.14 4.42L5.1 4.44C5.06 4.49 5.03 4.54 5 4.6L5 4.63L5 4.76L5 4.78C5.79 7.02 6.6 9.3 7.38 11.5C7.98 13.19 8.6 14.94 9.21 16.67C9.25 16.78 9.36 16.86 9.49 16.87L9.52 16.87C9.58 16.87 9.63 16.86 9.68 16.83C9.74 16.8 9.78 16.76 9.81 16.71L12.09 13.33C12.65 12.5 13.21 11.68 13.77 10.85L14.45 9.84C14.83 9.28 15.21 8.71 15.6 8.15L15.62 8.12L15.62 8.09C15.63 7.98 15.63 7.77 15.46 7.66ZM12.78 8.89C12.24 9.18 11.7 9.47 11.14 9.76L12.11 8.71C12.51 8.27 12.93 7.82 13.34 7.37L13.35 7.37C13.38 7.32 13.43 7.27 13.47 7.23C13.5 7.2 13.54 7.16 13.57 7.13C13.78 7.28 14 7.43 14.21 7.58C14.36 7.68 14.51 7.79 14.67 7.9C14.04 8.23 13.41 8.56 12.78 8.89ZM11.4 8.75C10.99 9.21 10.56 9.67 10.14 10.13C9.31 9.12 8.49 8.11 7.66 7.1L6.55 5.74L6.54 5.74C6.46 5.64 6.38 5.54 6.3 5.44C6.25 5.37 6.19 5.31 6.14 5.24C6.47 5.33 6.81 5.41 7.14 5.49C7.43 5.56 7.74 5.63 8.03 5.71L13.06 6.95C12.5 7.55 11.94 8.16 11.4 8.75ZM9.95 14.46C9.98 14.16 10.02 13.84 10.04 13.53C10.07 13.28 10.1 13.02 10.12 12.78C10.16 12.39 10.21 11.99 10.24 11.59L10.25 11.52C10.28 11.27 10.31 11.01 10.32 10.75C10.36 10.73 10.39 10.71 10.43 10.7C10.47 10.68 10.51 10.66 10.56 10.63C11.22 10.28 11.89 9.93 12.56 9.57C13.23 9.22 13.91 8.86 14.59 8.5C13.98 9.4 13.36 10.31 12.75 11.22C12.24 11.98 11.7 12.77 11.18 13.55C10.97 13.86 10.75 14.17 10.55 14.48C10.31 14.82 10.08 15.17 9.85 15.51C9.88 15.16 9.91 14.81 9.95 14.46ZM5.92 5.93C5.89 5.82 5.84 5.72 5.81 5.61C6.59 6.57 7.37 7.53 8.14 8.46C8.54 8.94 8.93 9.42 9.33 9.91C9.41 10 9.48 10.1 9.56 10.19C9.66 10.31 9.75 10.44 9.86 10.56C9.83 10.86 9.8 11.16 9.77 11.46C9.75 11.66 9.73 11.87 9.7 12.08L9.7 12.08C9.69 12.21 9.68 12.34 9.66 12.47L9.6 13.05L9.59 13.07C9.54 13.67 9.48 14.26 9.42 14.84C9.39 15.08 9.37 15.33 9.34 15.58C9.33 15.53 9.31 15.49 9.3 15.45C9.25 15.33 9.21 15.21 9.17 15.09L8.86 14.22L5.92 5.93L5.92 5.93Z" fill="#FFFFFF" fill-opacity="1.000000" fill-rule="nonzero"/>
	</g>
</svg>
