<svg width="20.000000" height="20.000000" viewBox="0 0 20 20" fill="none" xmlns="http://www.w3.org/2000/svg" xmlns:xlink="http://www.w3.org/1999/xlink">
	<desc>
			Created with Pixso.
	</desc>
	<defs>
		<clipPath id="clip8_571">
			<rect id="Без названия (4)" width="20.000000" height="20.000000" fill="white" fill-opacity="0"/>
		</clipPath>
	</defs>
	<rect id="Без названия (4)" width="20.000000" height="20.000000" fill="#FFFFFF" fill-opacity="0"/>
	<g clip-path="url(#clip8_571)">
		<path id="Vector" d="M20 10C20 15.52 15.52 20 10 20C4.47 20 0 15.52 0 10C0 4.47 4.47 0 10 0C15.52 0 20 4.47 20 10Z" fill="#EB0029" fill-opacity="1.000000" fill-rule="evenodd"/>
		<path id="Vector" d="M5.47 5.35C5.57 5.6 9.43 15.3 9.44 15.31C9.45 15.32 14.98 8.61 15 8.57C15 8.55 13.07 6.72 13.02 6.7C13 6.69 11.3 6.38 9.25 6C7.2 5.62 5.51 5.31 5.49 5.31C5.46 5.3 5.46 5.31 5.47 5.35ZM9.61 6.6C11.1 6.87 12.32 7.1 12.32 7.11C12.32 7.12 10.3 8.8 10.24 8.84C10.21 8.86 9.97 8.67 8.56 7.5C6.68 5.95 6.87 6.11 6.89 6.11C6.9 6.11 8.13 6.33 9.61 6.6ZM8.25 7.93C9.47 8.94 9.98 9.37 9.97 9.39C9.97 9.41 9.85 10.41 9.7 11.61C9.56 12.81 9.44 13.81 9.43 13.82C9.43 13.84 8.77 12.21 7.97 10.2C7.16 8.18 6.5 6.53 6.5 6.51C6.49 6.5 6.5 6.49 6.51 6.49C6.52 6.5 7.3 7.14 8.25 7.93ZM13.5 7.86C13.82 8.16 14.07 8.41 14.07 8.41C14.05 8.42 10.98 8.97 10.95 8.97C10.93 8.96 12.89 7.32 12.92 7.32C12.92 7.32 13.19 7.56 13.5 7.86ZM13.96 9.01C13.87 9.14 9.97 13.85 9.97 13.84C9.97 13.82 10.08 12.87 10.22 11.71L10.48 9.6L12.18 9.29C13.12 9.12 13.91 8.98 13.94 8.98C13.98 8.97 13.98 8.98 13.96 9.01Z" fill="#FFFFFF" fill-opacity="1.000000" fill-rule="evenodd"/>
	</g>
</svg>
