<svg width="40.000000" height="40.000000" viewBox="0 0 40 40" fill="none" xmlns="http://www.w3.org/2000/svg" xmlns:xlink="http://www.w3.org/1999/xlink">
	<desc>
			Created with Pixso.
	</desc>
	<defs>
		<clipPath id="clip8_595">
			<rect id="bell-ringing" width="20.000000" height="20.000000" transform="translate(9.681641 9.043579)" fill="white" fill-opacity="0"/>
		</clipPath>
		<clipPath id="clip8_594">
			<rect id="Frame 540" rx="20.000000" width="40.000000" height="40.000000" transform="translate(-0.318359 -0.956421)" fill="white" fill-opacity="0"/>
		</clipPath>
	</defs>
	<rect id="Frame 540" rx="20.000000" width="40.000000" height="40.000000" transform="translate(-0.318359 -0.956421)" fill="#F7F7F7" fill-opacity="1.000000"/>
	<g clip-path="url(#clip8_594)">
		<rect id="bell-ringing" width="20.000000" height="20.000000" transform="translate(9.681641 9.043579)" fill="#FFFFFF" fill-opacity="0"/>
		<g clip-path="url(#clip8_595)">
			<path id="Vector" d="M18.5 12.03C18.81 11.71 19.23 11.54 19.68 11.54C20.12 11.54 20.54 11.71 20.86 12.03C21.17 12.34 21.34 12.76 21.34 13.21C22.3 13.66 23.12 14.36 23.7 15.24C24.29 16.12 24.63 17.15 24.68 18.21L24.68 20.71C24.74 21.22 24.92 21.72 25.21 22.15C25.5 22.59 25.89 22.95 26.34 23.21L13.01 23.21C13.46 22.95 13.85 22.59 14.14 22.15C14.43 21.72 14.61 21.22 14.68 20.71L14.68 18.21C14.73 17.15 15.06 16.12 15.65 15.24C16.24 14.36 17.05 13.66 18.01 13.21C18.01 12.76 18.19 12.34 18.5 12.03Z" stroke="#1D1D1F" stroke-opacity="1.000000" stroke-width="1.500000" stroke-linejoin="round"/>
			<path id="Vector" d="M17.18 23.21L17.18 24.04C17.18 24.7 17.44 25.34 17.91 25.81C18.38 26.28 19.01 26.54 19.68 26.54C20.34 26.54 20.98 26.28 21.44 25.81C21.91 25.34 22.18 24.7 22.18 24.04L22.18 23.21" stroke="#1D1D1F" stroke-opacity="1.000000" stroke-width="1.500000" stroke-linejoin="round" stroke-linecap="round"/>
		</g>
	</g>
</svg>
