<svg width="24.000000" height="24.000000" viewBox="0 0 24 24" fill="none" xmlns="http://www.w3.org/2000/svg" xmlns:xlink="http://www.w3.org/1999/xlink">
	<desc>
			Created with Pixso.
	</desc>
	<defs>
		<clipPath id="clip8_425">
			<rect id="bell-ringing" width="24.000000" height="24.000000" transform="translate(-0.548340 -0.676514)" fill="white" fill-opacity="0"/>
		</clipPath>
	</defs>
	<rect id="bell-ringing" width="24.000000" height="24.000000" transform="translate(-0.548340 -0.676514)" fill="#FFFFFF" fill-opacity="0"/>
	<g clip-path="url(#clip8_425)">
		<path id="Vector" d="M10.03 2.9C10.41 2.53 10.92 2.32 11.45 2.32C11.98 2.32 12.49 2.53 12.86 2.9C13.24 3.28 13.45 3.79 13.45 4.32C14.6 4.86 15.57 5.71 16.28 6.76C16.98 7.82 17.39 9.05 17.45 10.32L17.45 13.32C17.52 13.94 17.74 14.54 18.09 15.06C18.44 15.58 18.9 16.01 19.45 16.32L3.45 16.32C3.99 16.01 4.46 15.58 4.8 15.06C5.15 14.54 5.37 13.94 5.45 13.32L5.45 10.32C5.51 9.05 5.91 7.82 6.61 6.76C7.32 5.71 8.3 4.86 9.45 4.32C9.45 3.79 9.66 3.28 10.03 2.9Z" stroke="#F3F5FF" stroke-opacity="1.000000" stroke-width="1.500000" stroke-linejoin="round"/>
		<path id="Vector" d="M8.45 16.32L8.45 17.32C8.45 18.11 8.76 18.88 9.33 19.44C9.89 20 10.65 20.32 11.45 20.32C12.24 20.32 13.01 20 13.57 19.44C14.13 18.88 14.45 18.11 14.45 17.32L14.45 16.32" stroke="#F3F5FF" stroke-opacity="1.000000" stroke-width="1.500000" stroke-linejoin="round" stroke-linecap="round"/>
	</g>
</svg>
