<svg width="160.000000" height="20.000000" viewBox="0 0 160 20" fill="none" xmlns="http://www.w3.org/2000/svg" xmlns:xlink="http://www.w3.org/1999/xlink">
	<desc>
			Created with Pixso.
	</desc>
	<defs>
		<clipPath id="clip8_528">
			<rect id="Без названия (1)" width="20.000000" height="20.000000" transform="translate(-0.318359 -0.825439)" fill="white" fill-opacity="0"/>
		</clipPath>
		<clipPath id="clip8_533">
			<rect id="Без названия (2)" width="20.000000" height="12.492837" transform="translate(27.681641 2.399658)" fill="white" fill-opacity="0"/>
		</clipPath>
		<clipPath id="clip8_571">
			<rect id="Без названия (4)" width="20.000000" height="20.000000" transform="translate(55.681641 -0.825439)" fill="white" fill-opacity="0"/>
		</clipPath>
		<clipPath id="clip8_574">
			<rect id="Без названия (3)" width="20.000000" height="20.000000" transform="translate(83.681641 -0.825439)" fill="white" fill-opacity="0"/>
		</clipPath>
		<clipPath id="clip8_577">
			<rect id="binance-usd-busd-logo" width="19.940140" height="20.000004" transform="translate(111.681641 -0.825439)" fill="white" fill-opacity="0"/>
		</clipPath>
		<clipPath id="clip8_584">
			<rect id="Без названия" width="20.000000" height="20.000000" transform="translate(139.621582 -0.825439)" fill="white" fill-opacity="0"/>
		</clipPath>
		<linearGradient x1="149.622070" y1="-0.825439" x2="149.622070" y2="19.174561" id="paint_linear_8_585_0" gradientUnits="userSpaceOnUse">
			<stop stop-color="#4A819F"/>
			<stop offset="1.000000" stop-color="#034681"/>
		</linearGradient>
	</defs>
	<rect id="Без названия (1)" width="20.000000" height="20.000000" transform="translate(-0.318359 -0.825439)" fill="#FFFFFF" fill-opacity="0"/>
	<g clip-path="url(#clip8_528)">
		<path id="Vector" d="M19.68 9.17C19.68 14.69 15.2 19.17 9.68 19.17C4.15 19.17 -0.32 14.69 -0.32 9.17C-0.32 3.65 4.15 -0.83 9.68 -0.83C15.2 -0.83 19.68 3.65 19.68 9.17Z" fill="#26A17B" fill-opacity="1.000000" fill-rule="evenodd"/>
		<path id="Vector" d="M15.14 6.84C14.64 6.48 14.11 6.1 13.59 5.73C13.57 5.72 13.56 5.71 13.55 5.7C13.49 5.65 13.42 5.61 13.34 5.59L13.34 5.58C11.94 5.24 10.54 4.89 9.14 4.55L5.4 3.63L5.31 3.6C5.19 3.57 5.06 3.53 4.93 3.55C4.89 3.55 4.85 3.57 4.82 3.59L4.78 3.62C4.74 3.66 4.71 3.72 4.69 3.78L4.68 3.8L4.68 3.94L4.68 3.96C5.47 6.2 6.28 8.47 7.06 10.67C7.66 12.36 8.28 14.12 8.89 15.84C8.93 15.96 9.04 16.03 9.17 16.04L9.2 16.04C9.26 16.05 9.32 16.03 9.37 16C9.42 15.98 9.46 15.93 9.49 15.88L11.78 12.5C12.33 11.68 12.89 10.85 13.45 10.03L14.13 9.01C14.51 8.46 14.89 7.88 15.28 7.32L15.3 7.3L15.3 7.26C15.31 7.16 15.31 6.95 15.14 6.84ZM12.46 8.07C11.93 8.35 11.38 8.65 10.83 8.94L11.79 7.89C12.19 7.45 12.61 6.99 13.02 6.55L13.03 6.54C13.06 6.49 13.11 6.45 13.15 6.4C13.18 6.37 13.22 6.34 13.25 6.3C13.47 6.45 13.68 6.6 13.89 6.75C14.04 6.86 14.19 6.97 14.35 7.08C13.72 7.4 13.09 7.73 12.46 8.07ZM11.08 7.93C10.67 8.38 10.24 8.85 9.82 9.31C8.99 8.29 8.17 7.28 7.34 6.27L6.23 4.92L6.23 4.91C6.14 4.82 6.06 4.71 5.98 4.61C5.93 4.55 5.87 4.48 5.82 4.41C6.15 4.5 6.49 4.58 6.82 4.66C7.11 4.73 7.42 4.81 7.72 4.88L12.74 6.12C12.19 6.72 11.63 7.34 11.08 7.93ZM9.63 13.64C9.66 13.33 9.7 13.01 9.73 12.7C9.75 12.45 9.78 12.2 9.8 11.96C9.84 11.57 9.89 11.16 9.92 10.77L9.93 10.7C9.96 10.44 9.99 10.18 10.01 9.92C10.04 9.9 10.07 9.89 10.11 9.87C10.15 9.85 10.2 9.84 10.24 9.81C10.91 9.45 11.57 9.1 12.24 8.75C12.91 8.4 13.6 8.03 14.27 7.67C13.66 8.58 13.04 9.48 12.43 10.39C11.92 11.16 11.39 11.94 10.86 12.72C10.65 13.03 10.43 13.35 10.23 13.65C10 13.99 9.76 14.34 9.53 14.69C9.56 14.34 9.59 13.98 9.63 13.64ZM5.6 5.1C5.57 5 5.53 4.89 5.49 4.79C6.27 5.74 7.06 6.7 7.82 7.64C8.22 8.12 8.61 8.6 9.01 9.09C9.09 9.18 9.17 9.27 9.24 9.37C9.34 9.49 9.44 9.61 9.54 9.73C9.51 10.03 9.48 10.34 9.45 10.63C9.43 10.84 9.41 11.04 9.38 11.25L9.38 11.25C9.38 11.38 9.36 11.52 9.34 11.65L9.28 12.23L9.27 12.25C9.22 12.84 9.16 13.44 9.1 14.02C9.07 14.26 9.05 14.5 9.02 14.75C9.01 14.71 8.99 14.66 8.98 14.62C8.93 14.5 8.89 14.38 8.85 14.26L8.54 13.39L5.6 5.1L5.6 5.1Z" fill="#FFFFFF" fill-opacity="1.000000" fill-rule="nonzero"/>
	</g>
	<rect id="Без названия (2)" width="20.000000" height="12.492837" transform="translate(27.681641 2.399658)" fill="#FFFFFF" fill-opacity="0"/>
	<g clip-path="url(#clip8_533)">
		<mask id="mask8_535" mask-type="alpha" maskUnits="userSpaceOnUse" x="27.682617" y="2.399658" width="20.000000" height="12.492798">
			<path id="Vector" d="M27.68 2.39L47.68 2.39L47.68 14.89L27.68 14.89L27.68 2.39Z" fill="#000000" fill-opacity="1.000000" fill-rule="evenodd"/>
		</mask>
		<g mask="url(#mask8_535)">
			<path id="Vector" d="M47.64 14.24C47.64 14.61 47.34 14.91 46.97 14.91L28.32 14.91C27.95 14.91 27.65 14.61 27.65 14.24L27.65 3.08C27.65 2.72 27.95 2.42 28.32 2.42L46.97 2.42C47.34 2.42 47.64 2.72 47.64 3.08L47.64 14.24Z" fill="#14477C" fill-opacity="1.000000" fill-rule="evenodd"/>
			<path id="Vector" d="M40.04 12.25L40.23 12.24L40.41 12.23L40.59 12.2L40.77 12.17L40.94 12.13L41.11 12.09L41.28 12.03L41.44 11.96L41.6 11.89L41.76 11.81L41.91 11.73L42.05 11.63L42.19 11.53L42.33 11.43L42.46 11.31L42.58 11.19L42.7 11.07L42.81 10.94L42.92 10.8L43.02 10.67L43.11 10.52L43.2 10.37L43.28 10.21L43.35 10.05L43.42 9.89L43.48 9.72L43.52 9.55L43.56 9.38L43.6 9.2L43.62 9.02L43.63 8.84L43.64 8.66L43.63 8.47L43.62 8.29L43.6 8.11L43.56 7.94L43.52 7.76L43.48 7.59L43.42 7.42L43.35 7.26L43.28 7.11L43.2 6.95L43.11 6.8L43.02 6.65L42.92 6.52L42.81 6.38L42.7 6.25L42.58 6.13L42.46 6.01L42.33 5.9L42.19 5.79L42.05 5.69L41.91 5.6L41.76 5.51L41.6 5.43L41.44 5.36L41.28 5.3L41.11 5.24L40.94 5.19L40.77 5.15L40.59 5.12L40.41 5.1L40.23 5.08L40.04 5.08L39.86 5.08L39.68 5.1L39.5 5.12L39.32 5.15L39.15 5.19L38.98 5.24L38.81 5.3L38.65 5.36L38.49 5.43L38.34 5.51L38.19 5.6L38.04 5.69L37.9 5.79L37.77 5.9L37.64 6.01L37.51 6.13L37.39 6.25L37.28 6.38L37.17 6.52L37.08 6.65L36.98 6.8L36.9 6.95L36.82 7.11L36.75 7.26L36.68 7.42L36.63 7.59L36.58 7.76L36.54 7.94L36.51 8.11L36.48 8.29L36.47 8.47L36.47 8.66L36.47 8.84L36.48 9.02L36.51 9.2L36.54 9.38L36.58 9.55L36.63 9.72L36.68 9.89L36.75 10.05L36.82 10.21L36.9 10.37L36.98 10.52L37.08 10.67L37.17 10.8L37.28 10.94L37.39 11.07L37.51 11.19L37.64 11.31L37.77 11.43L37.9 11.53L38.04 11.63L38.19 11.73L38.34 11.81L38.49 11.89L38.65 11.96L38.81 12.03L38.98 12.09L39.15 12.13L39.32 12.17L39.5 12.2L39.68 12.23L39.86 12.24L40.04 12.25Z" fill="#FBB230" fill-opacity="1.000000" fill-rule="evenodd"/>
			<path id="Vector" d="M35.25 12.25L35.43 12.24L35.61 12.23L35.79 12.2L35.97 12.17L36.14 12.13L36.32 12.09L36.48 12.03L36.64 11.96L36.8 11.89L36.95 11.81L37.1 11.73L37.25 11.63L37.39 11.53L37.52 11.43L37.66 11.31L37.78 11.19L37.9 11.07L38.01 10.94L38.12 10.8L38.21 10.67L38.31 10.52L38.39 10.37L38.47 10.21L38.55 10.05L38.61 9.89L38.66 9.72L38.71 9.55L38.76 9.38L38.79 9.2L38.81 9.02L38.82 8.84L38.83 8.66L38.82 8.47L38.81 8.29L38.79 8.11L38.76 7.94L38.71 7.76L38.66 7.59L38.61 7.42L38.55 7.26L38.47 7.11L38.39 6.95L38.31 6.8L38.21 6.65L38.12 6.52L38.01 6.38L37.9 6.25L37.78 6.13L37.66 6.01L37.52 5.9L37.39 5.79L37.25 5.69L37.1 5.6L36.95 5.51L36.8 5.43L36.64 5.36L36.48 5.3L36.32 5.24L36.14 5.19L35.97 5.15L35.79 5.12L35.61 5.1L35.43 5.08L35.25 5.08L35.06 5.08L34.88 5.1L34.7 5.12L34.52 5.15L34.35 5.19L34.18 5.24L34.01 5.3L33.85 5.36L33.69 5.43L33.54 5.51L33.39 5.6L33.24 5.69L33.1 5.79L32.96 5.9L32.83 6.01L32.71 6.13L32.59 6.25L32.48 6.38L32.37 6.52L32.27 6.65L32.18 6.8L32.09 6.95L32.01 7.11L31.94 7.26L31.87 7.42L31.82 7.59L31.77 7.76L31.73 7.94L31.7 8.11L31.67 8.29L31.66 8.47L31.66 8.66L31.66 8.84L31.67 9.02L31.7 9.2L31.73 9.38L31.77 9.55L31.82 9.72L31.87 9.89L31.94 10.05L32.01 10.21L32.09 10.37L32.18 10.52L32.27 10.67L32.37 10.8L32.48 10.94L32.59 11.07L32.71 11.19L32.83 11.31L32.96 11.43L33.1 11.53L33.24 11.63L33.39 11.73L33.54 11.81L33.69 11.89L33.85 11.96L34.01 12.03L34.18 12.09L34.35 12.13L34.52 12.17L34.7 12.2L34.88 12.23L35.06 12.24L35.25 12.25Z" fill="#EB2230" fill-opacity="1.000000" fill-rule="evenodd"/>
			<path id="Vector" d="M37.23 6.45L39.13 6.45L39.13 6.26L37.39 6.26L37.23 6.45Z" fill="#FBB230" fill-opacity="1.000000" fill-rule="evenodd"/>
			<path id="Vector" d="M36.94 6.88L39.13 6.88L39.13 6.69L37.06 6.69L36.94 6.88Z" fill="#FBB230" fill-opacity="1.000000" fill-rule="evenodd"/>
			<path id="Vector" d="M36.73 7.32L39.13 7.32L39.13 7.12L36.81 7.12L36.73 7.32Z" fill="#FBB230" fill-opacity="1.000000" fill-rule="evenodd"/>
			<path id="Vector" d="M36.58 7.75L39.13 7.75L39.13 7.56L36.64 7.56L36.58 7.75Z" fill="#FBB230" fill-opacity="1.000000" fill-rule="evenodd"/>
			<path id="Vector" d="M36.67 9.84L39.14 9.84L39.14 9.65L36.61 9.65L36.67 9.84Z" fill="#FBB230" fill-opacity="1.000000" fill-rule="evenodd"/>
			<path id="Vector" d="M36.85 10.27L39.14 10.27L39.14 10.08L36.76 10.08L36.85 10.27Z" fill="#FBB230" fill-opacity="1.000000" fill-rule="evenodd"/>
			<path id="Vector" d="M37.11 10.71L39.14 10.71L39.14 10.51L36.98 10.51L37.11 10.71Z" fill="#FBB230" fill-opacity="1.000000" fill-rule="evenodd"/>
			<path id="Vector" d="M37.46 11.14L39.14 11.14L39.14 10.94L37.29 10.94L37.46 11.14Z" fill="#FBB230" fill-opacity="1.000000" fill-rule="evenodd"/>
			<path id="Vector" d="M36.5 8.18L39.13 8.18L39.13 7.99L36.53 7.99L36.5 8.18Z" fill="#FBB230" fill-opacity="1.000000" fill-rule="evenodd"/>
			<path id="Vector" d="M38.1 9.41L39.11 9.41L39.11 9.22L38.14 9.22L38.1 9.41Z" fill="#FBB230" fill-opacity="1.000000" fill-rule="evenodd"/>
			<path id="Vector" d="M38.18 8.98L39.11 8.98L39.11 8.78L38.22 8.78L38.18 8.98Z" fill="#FBB230" fill-opacity="1.000000" fill-rule="evenodd"/>
			<path id="Vector" d="M36.43 8.78L36.69 8.78L36.69 8.98L36.44 8.98L36.43 8.78Z" fill="#FBB230" fill-opacity="1.000000" fill-rule="evenodd"/>
			<path id="Vector" d="M43.29 10.68C43.39 10.68 43.46 10.76 43.46 10.85C43.46 10.94 43.39 11.01 43.29 11.01C43.2 11.01 43.12 10.94 43.12 10.85C43.12 10.76 43.2 10.68 43.29 10.68ZM43.29 10.71C43.37 10.71 43.43 10.77 43.43 10.85C43.43 10.92 43.37 10.99 43.29 10.99C43.22 10.99 43.15 10.92 43.15 10.85C43.15 10.77 43.22 10.71 43.29 10.71Z" fill="#FBB230" fill-opacity="1.000000" fill-rule="evenodd"/>
			<path id="Vector" d="M43.23 10.92L43.23 10.78L43.29 10.78C43.3 10.78 43.31 10.78 43.32 10.78C43.33 10.79 43.33 10.79 43.34 10.79C43.34 10.8 43.34 10.81 43.34 10.82C43.34 10.83 43.34 10.84 43.34 10.84C43.33 10.85 43.32 10.85 43.31 10.86C43.31 10.86 43.32 10.86 43.32 10.87C43.32 10.87 43.33 10.88 43.34 10.89L43.35 10.92L43.32 10.92L43.3 10.89C43.29 10.88 43.29 10.87 43.28 10.87C43.28 10.86 43.28 10.86 43.28 10.86C43.27 10.86 43.27 10.86 43.26 10.86L43.26 10.86L43.26 10.92L43.23 10.92ZM43.26 10.84L43.28 10.84C43.29 10.84 43.3 10.84 43.3 10.83C43.31 10.83 43.31 10.83 43.31 10.83C43.31 10.83 43.31 10.82 43.31 10.82C43.31 10.82 43.31 10.81 43.31 10.81C43.31 10.8 43.3 10.8 43.3 10.8C43.3 10.8 43.29 10.8 43.28 10.8L43.26 10.8L43.26 10.84L43.26 10.84Z" fill="#FBB230" fill-opacity="1.000000" fill-rule="nonzero"/>
			<path id="Vector" d="M43.25 9.26C43.35 9.26 43.42 9.34 43.42 9.43C43.42 9.53 43.35 9.6 43.25 9.6C43.16 9.6 43.08 9.53 43.08 9.43C43.08 9.34 43.16 9.26 43.25 9.26ZM43.25 9.29C43.33 9.29 43.4 9.36 43.4 9.43C43.4 9.51 43.33 9.58 43.25 9.58C43.17 9.58 43.11 9.51 43.11 9.43C43.11 9.36 43.17 9.29 43.25 9.29Z" fill="#FFFFFF" fill-opacity="1.000000" fill-rule="evenodd"/>
			<path id="Vector" d="M43.19 9.51L43.19 9.37L43.25 9.37C43.26 9.37 43.28 9.37 43.28 9.37C43.29 9.37 43.29 9.38 43.3 9.38C43.3 9.39 43.31 9.4 43.31 9.4C43.31 9.41 43.3 9.42 43.29 9.43C43.29 9.44 43.28 9.44 43.27 9.44C43.27 9.45 43.28 9.45 43.28 9.46C43.29 9.46 43.29 9.47 43.3 9.48L43.32 9.51L43.28 9.51L43.26 9.47C43.25 9.46 43.25 9.46 43.25 9.46C43.24 9.45 43.24 9.45 43.24 9.45C43.23 9.45 43.23 9.45 43.22 9.45L43.22 9.45L43.22 9.5L43.19 9.51ZM43.22 9.43L43.24 9.43C43.25 9.43 43.26 9.43 43.26 9.42C43.27 9.42 43.27 9.42 43.27 9.42C43.28 9.41 43.28 9.41 43.28 9.41C43.28 9.4 43.27 9.4 43.27 9.4C43.27 9.39 43.26 9.39 43.26 9.39C43.26 9.39 43.25 9.39 43.24 9.39L43.22 9.39L43.22 9.43Z" fill="#FFFFFF" fill-opacity="1.000000" fill-rule="nonzero"/>
			<path id="Vector" d="M40.84 9.53L41.08 8.25L41.39 8.25L41.43 8.39C41.48 8.33 41.58 8.25 41.76 8.25L41.67 8.59C41.59 8.59 41.46 8.58 41.35 8.83C41.28 9.01 41.24 9.32 41.2 9.53L40.84 9.53Z" fill="#FFFFFF" fill-opacity="1.000000" fill-rule="evenodd"/>
			<path id="Vector" d="M36.24 7.94L36.57 7.94L36.5 8.27L36.69 8.27L36.63 8.54L36.46 8.54L36.37 9.04C36.35 9.14 36.37 9.23 36.56 9.19L36.52 9.47C36.32 9.63 35.91 9.52 35.97 9.14L36.24 7.94Z" fill="#FFFFFF" fill-opacity="1.000000" fill-rule="evenodd"/>
			<path id="Vector" d="M37.74 8.97C37.78 8.76 37.87 8.25 37.27 8.25C36.71 8.25 36.63 8.82 36.63 8.89C36.61 8.97 36.61 9.53 37.21 9.53C37.36 9.53 37.57 9.51 37.67 9.47L37.72 9.21C37.67 9.23 37.48 9.25 37.33 9.25C37.19 9.25 36.97 9.25 37.01 8.97L37.74 8.97Z" fill="#FFFFFF" fill-opacity="1.000000" fill-rule="evenodd"/>
			<path id="Vector" d="M33.65 9.53L33.95 7.99L33.36 7.99L32.95 8.93L32.87 7.99L32.33 7.99L32.03 9.53L32.37 9.53L32.59 8.42L32.68 9.53L33 9.53L33.49 8.44L33.29 9.53L33.65 9.53Z" fill="#FFFFFF" fill-opacity="1.000000" fill-rule="evenodd"/>
			<path id="Vector" d="M34.04 8.29L33.98 8.57C34.08 8.57 34.3 8.54 34.41 8.54C34.53 8.54 34.68 8.52 34.62 8.71C34.53 8.71 33.91 8.61 33.81 9.16C33.76 9.52 34.19 9.65 34.45 9.47L34.49 9.55L34.81 9.55L34.94 8.86C35.08 8.23 34.48 8.22 34.04 8.29Z" fill="#FFFFFF" fill-opacity="1.000000" fill-rule="evenodd"/>
			<path id="Vector" d="M39.63 8.4C39.54 8.35 39.49 8.35 39.38 8.35C39.28 8.35 39.03 8.46 39 8.74C38.94 9.09 39.17 9.25 39.51 9.14L39.6 9.44C39.03 9.73 38.48 9.29 38.66 8.6C38.81 8.07 39.5 7.76 39.84 8.19L39.63 8.4Z" fill="#FFFFFF" fill-opacity="1.000000" fill-rule="evenodd"/>
			<path id="Vector" d="M42.61 8.4C41.69 7.71 41.33 9.53 42.04 9.53C42.16 9.53 42.27 9.48 42.34 9.44L42.38 9.53L42.76 9.53L43.06 7.92L42.7 7.92L42.61 8.4Z" fill="#FFFFFF" fill-opacity="1.000000" fill-rule="evenodd"/>
			<path id="Vector" d="M39.9 8.29L39.84 8.57C39.94 8.57 40.16 8.54 40.28 8.54C40.39 8.54 40.52 8.52 40.48 8.71C40.39 8.71 39.77 8.61 39.68 9.16C39.64 9.42 39.86 9.55 40.03 9.55C40.2 9.55 40.26 9.51 40.31 9.47L40.35 9.55L40.67 9.55L40.8 8.86C40.94 8.23 40.34 8.22 39.9 8.29Z" fill="#FFFFFF" fill-opacity="1.000000" fill-rule="evenodd"/>
			<path id="Vector" d="M37.01 8.72L37.44 8.72C37.49 8.38 37.08 8.45 37.01 8.72Z" fill="#EB2230" fill-opacity="1.000000" fill-rule="evenodd"/>
			<path id="Vector" d="M34.57 8.97C34.51 8.97 34.38 8.93 34.27 9.01C34.15 9.08 34.12 9.21 34.25 9.25C34.36 9.29 34.51 9.21 34.55 9.1L34.57 8.97Z" fill="#EB2230" fill-opacity="1.000000" fill-rule="evenodd"/>
			<path id="Vector" d="M42.44 8.61C42.33 8.46 42.08 8.57 42.01 8.86C41.95 9.04 42.06 9.17 42.18 9.17C42.41 9.17 42.56 8.79 42.44 8.61Z" fill="#FBB230" fill-opacity="1.000000" fill-rule="evenodd"/>
			<path id="Vector" d="M40.45 8.97C40.39 8.97 40.26 8.93 40.15 9.01C40.03 9.08 40 9.21 40.13 9.25C40.24 9.29 40.41 9.21 40.43 9.1L40.45 8.97Z" fill="#FBB230" fill-opacity="1.000000" fill-rule="evenodd"/>
			<path id="Vector" d="M37.74 9.55L37.76 9.42L37.99 8.27L38.29 8.27L38.32 8.4C38.38 8.35 38.47 8.27 38.66 8.27L38.57 8.61C38.5 8.61 38.35 8.6 38.23 8.9C38.17 9.07 38.13 9.36 38.1 9.55L37.74 9.55Z" fill="#FFFFFF" fill-opacity="1.000000" fill-rule="evenodd"/>
			<path id="Vector" d="M35.93 8.58L35.91 8.58L35.89 8.58L35.88 8.58L35.87 8.57L35.85 8.57L35.83 8.57C35.77 8.56 35.71 8.56 35.64 8.56C35.47 8.58 35.4 8.69 35.54 8.77C35.66 8.84 35.75 8.83 35.83 8.9C36 9.06 35.91 9.36 35.72 9.48L35.69 9.49L35.65 9.51L35.61 9.52L35.57 9.53C35.39 9.56 35.15 9.55 34.97 9.49L35.02 9.24C35.16 9.27 35.4 9.34 35.5 9.26C35.63 9.18 35.52 9.08 35.43 9.04L35.38 9.02L35.34 9.01C34.98 8.84 35.06 8.41 35.4 8.32C35.53 8.29 35.67 8.29 35.81 8.3L35.83 8.3C35.87 8.31 35.9 8.31 35.93 8.32L35.94 8.32L35.96 8.32L35.97 8.32L35.97 8.33L35.99 8.33L35.93 8.58Z" fill="#FFFFFF" fill-opacity="1.000000" fill-rule="evenodd"/>
		</g>
	</g>
	<rect id="Без названия (4)" width="20.000000" height="20.000000" transform="translate(55.681641 -0.825439)" fill="#FFFFFF" fill-opacity="0"/>
	<g clip-path="url(#clip8_571)">
		<path id="Vector" d="M75.68 9.17C75.68 14.69 71.2 19.17 65.68 19.17C60.15 19.17 55.68 14.69 55.68 9.17C55.68 3.65 60.15 -0.83 65.68 -0.83C71.2 -0.83 75.68 3.65 75.68 9.17Z" fill="#EB0029" fill-opacity="1.000000" fill-rule="evenodd"/>
		<path id="Vector" d="M61.16 4.53C61.25 4.77 65.11 14.47 65.12 14.48C65.13 14.49 70.66 7.79 70.68 7.75C70.68 7.73 68.76 5.9 68.7 5.88C68.68 5.87 66.99 5.55 64.93 5.18C62.88 4.8 61.19 4.49 61.17 4.48C61.14 4.48 61.14 4.48 61.16 4.53ZM65.3 5.78C66.78 6.05 68 6.28 68 6.28C68 6.3 65.98 7.98 65.92 8.02C65.89 8.03 65.65 7.85 64.24 6.68C62.36 5.13 62.55 5.28 62.57 5.28C62.58 5.28 63.81 5.5 65.3 5.78ZM63.93 7.11C65.15 8.12 65.66 8.55 65.66 8.57C65.65 8.59 65.53 9.58 65.39 10.78C65.24 11.99 65.12 12.98 65.11 13C65.11 13.01 64.45 11.38 63.65 9.37C62.85 7.36 62.19 5.7 62.18 5.69C62.17 5.67 62.18 5.66 62.19 5.67C62.2 5.67 62.98 6.32 63.93 7.11ZM69.18 7.03C69.5 7.33 69.75 7.58 69.75 7.58C69.74 7.6 66.66 8.15 66.63 8.14C66.61 8.14 68.57 6.49 68.6 6.49C68.6 6.49 68.87 6.74 69.18 7.03ZM69.64 8.19C69.55 8.32 65.66 13.03 65.65 13.01C65.65 13 65.76 12.04 65.9 10.88L66.16 8.77L67.87 8.46C68.8 8.29 69.59 8.15 69.62 8.15C69.66 8.15 69.66 8.15 69.64 8.19Z" fill="#FFFFFF" fill-opacity="1.000000" fill-rule="evenodd"/>
	</g>
	<rect id="Без названия (3)" width="20.000000" height="20.000000" transform="translate(83.681641 -0.825439)" fill="#FFFFFF" fill-opacity="0"/>
	<g clip-path="url(#clip8_574)">
		<path id="Vector" d="M93.68 19.17C99.2 19.17 103.68 14.69 103.68 9.17C103.68 3.65 99.2 -0.83 93.68 -0.83C88.15 -0.83 83.68 3.65 83.68 9.17C83.68 14.69 88.15 19.17 93.68 19.17Z" fill="#8DC351" fill-opacity="1.000000" fill-rule="nonzero"/>
		<path id="Vector" d="M98.36 7.48C97.89 7.24 97.32 7.19 96.66 7.33C97.23 6.59 97.25 5.77 96.72 4.9C96.53 4.58 96.3 4.33 96.02 4.16C95.75 3.99 95.45 3.89 95.11 3.87C94.78 3.84 94.44 3.87 94.09 3.93C93.75 4 93.37 4.11 92.95 4.27L92.04 2.36L90.87 2.91L91.75 4.77C91.55 4.87 91.24 5.02 90.83 5.23L89.94 3.35L88.77 3.91L89.68 5.82C89.52 5.91 89.27 6.03 88.95 6.18L87.34 6.94L87.93 8.19L88.77 7.79C89.16 7.6 89.47 7.67 89.7 7.98L90.74 10.16C90.79 10.14 90.83 10.12 90.86 10.11L90.74 10.17L92.2 13.22C92.28 13.5 92.2 13.7 91.94 13.82L91.1 14.22L91.53 15.72L93.05 15C93.14 14.95 93.28 14.89 93.47 14.8C93.65 14.72 93.79 14.66 93.88 14.61L94.8 16.55L95.97 15.99L95.06 14.08C95.28 13.98 95.59 13.84 95.99 13.64L96.9 15.55L98.07 14.99L97.15 13.06C97.55 12.84 97.9 12.62 98.2 12.42C98.49 12.21 98.76 11.97 98.99 11.71C99.23 11.45 99.4 11.19 99.52 10.92C99.63 10.65 99.69 10.34 99.68 10.01C99.68 9.67 99.61 9.32 99.48 8.94C99.21 8.2 98.84 7.71 98.36 7.48ZM91.51 6.58C91.55 6.57 91.65 6.52 91.81 6.44C91.97 6.36 92.11 6.29 92.22 6.23C92.32 6.18 92.47 6.12 92.67 6.04C92.86 5.97 93.02 5.92 93.16 5.88C93.3 5.84 93.46 5.82 93.64 5.81C93.82 5.79 93.97 5.81 94.11 5.85C94.24 5.89 94.37 5.96 94.49 6.06C94.61 6.16 94.72 6.29 94.8 6.46C94.86 6.6 94.9 6.74 94.91 6.88C94.92 7.01 94.9 7.14 94.85 7.27C94.79 7.39 94.73 7.5 94.66 7.61C94.59 7.71 94.49 7.82 94.36 7.92C94.23 8.03 94.11 8.12 94.01 8.19C93.91 8.27 93.78 8.35 93.62 8.43C93.45 8.52 93.33 8.59 93.24 8.63C93.16 8.67 93.04 8.73 92.89 8.8C92.74 8.87 92.65 8.91 92.63 8.92L91.51 6.58ZM97.17 10.23C97.18 10.37 97.17 10.5 97.13 10.63C97.1 10.75 97.03 10.87 96.94 11C96.85 11.12 96.76 11.23 96.66 11.33C96.56 11.42 96.44 11.53 96.29 11.63C96.14 11.74 96.01 11.83 95.89 11.9C95.77 11.98 95.63 12.06 95.46 12.15C95.29 12.24 95.16 12.3 95.06 12.35C94.96 12.4 94.84 12.45 94.69 12.52C94.55 12.59 94.45 12.63 94.41 12.65L93.19 10.08C93.23 10.06 93.35 10 93.54 9.9C93.74 9.8 93.9 9.72 94.03 9.66C94.16 9.6 94.33 9.53 94.56 9.44C94.79 9.35 94.99 9.28 95.16 9.24C95.32 9.19 95.51 9.16 95.72 9.14C95.93 9.12 96.11 9.13 96.27 9.16C96.42 9.2 96.57 9.27 96.71 9.38C96.86 9.49 96.97 9.63 97.06 9.81C97.13 9.95 97.17 10.09 97.17 10.23Z" fill="#FFFFFF" fill-opacity="1.000000" fill-rule="nonzero"/>
	</g>
	<rect id="binance-usd-busd-logo" width="19.940140" height="20.000004" transform="translate(111.681641 -0.825439)" fill="#FFFFFF" fill-opacity="0"/>
	<g clip-path="url(#clip8_577)">
		<path id="Vector" d="M121.65 -0.79L124.11 1.73L117.91 7.92L115.45 5.46L121.65 -0.79Z" fill="#F0B90B" fill-opacity="1.000000" fill-rule="nonzero"/>
		<path id="Vector" d="M124.11 1.73L117.91 7.92L115.45 5.46L121.65 -0.79L124.11 1.73Z" stroke="#F0B90B" stroke-opacity="1.000000" stroke-width="0.059273"/>
		<path id="Vector" d="M125.38 2.95L127.84 5.47L117.91 15.39L115.45 12.93L125.38 2.95Z" fill="#F0B90B" fill-opacity="1.000000" fill-rule="nonzero"/>
		<path id="Vector" d="M127.84 5.47L117.91 15.39L115.45 12.93L125.38 2.95L127.84 5.47Z" stroke="#F0B90B" stroke-opacity="1.000000" stroke-width="0.059273"/>
		<path id="Vector" d="M114.18 6.68L116.64 9.2L114.18 11.66L111.72 9.2L114.18 6.68Z" fill="#F0B90B" fill-opacity="1.000000" fill-rule="nonzero"/>
		<path id="Vector" d="M116.64 9.2L114.18 11.66L111.72 9.2L114.18 6.68L116.64 9.2Z" stroke="#F0B90B" stroke-opacity="1.000000" stroke-width="0.059273"/>
		<path id="Vector" d="M129.12 6.68L131.58 9.2L121.65 19.13L119.19 16.67L129.12 6.68Z" fill="#F0B90B" fill-opacity="1.000000" fill-rule="nonzero"/>
		<path id="Vector" d="M131.58 9.2L121.65 19.13L119.19 16.67L129.12 6.68L131.58 9.2Z" stroke="#F0B90B" stroke-opacity="1.000000" stroke-width="0.059273"/>
	</g>
	<rect id="Без названия" width="20.000000" height="20.000000" transform="translate(139.621582 -0.825439)" fill="#FFFFFF" fill-opacity="0"/>
	<g clip-path="url(#clip8_584)">
		<path id="Vector" d="M149.62 19.17C155.14 19.17 159.62 14.69 159.62 9.17C159.62 3.65 155.14 -0.83 149.62 -0.83C144.09 -0.83 139.62 3.65 139.62 9.17C139.62 14.69 144.09 19.17 149.62 19.17Z" fill="url(#paint_linear_8_585_0)" fill-opacity="1.000000" fill-rule="nonzero"/>
		<path id="Vector" d="M149.62 11.29L145.78 9.47L149.62 16.17L153.45 9.47L149.62 11.29Z" fill="#FFFFFF" fill-opacity="1.000000" fill-rule="nonzero"/>
		<path id="Vector" d="M153.03 8.11L149.62 2.17L146.19 8.11L149.62 6.49L153.03 8.11Z" fill="#FFFFFF" fill-opacity="1.000000" fill-rule="nonzero"/>
		<path id="Vector" d="M146.49 8.88L149.62 10.36L152.75 8.88L149.62 7.4L146.49 8.88Z" fill="#FFFFFF" fill-opacity="1.000000" fill-rule="nonzero"/>
	</g>
</svg>
