<svg width="160.000000" height="20.000000" viewBox="0 0 160 20" fill="none" xmlns="http://www.w3.org/2000/svg" xmlns:xlink="http://www.w3.org/1999/xlink">
	<desc>
			Created with Pixso.
	</desc>
	<defs>
		<clipPath id="clip8_461">
			<rect id="Без названия (2)" width="20.000000" height="12.492837" transform="translate(-0.318359 2.399658)" fill="white" fill-opacity="0"/>
		</clipPath>
		<clipPath id="clip8_499">
			<rect id="Без названия (1)" width="20.000000" height="20.000000" transform="translate(27.681641 -0.825439)" fill="white" fill-opacity="0"/>
		</clipPath>
		<clipPath id="clip8_503">
			<rect id="Без названия (3)" width="20.000000" height="20.000000" transform="translate(55.681641 -0.825439)" fill="white" fill-opacity="0"/>
		</clipPath>
		<clipPath id="clip8_506">
			<rect id="Без названия (4)" width="20.000000" height="20.000000" transform="translate(83.681641 -0.825439)" fill="white" fill-opacity="0"/>
		</clipPath>
		<clipPath id="clip8_509">
			<rect id="Без названия" width="20.000000" height="20.000000" transform="translate(111.681641 -0.825439)" fill="white" fill-opacity="0"/>
		</clipPath>
		<clipPath id="clip8_514">
			<rect id="binance-usd-busd-logo" width="19.940140" height="20.000004" transform="translate(139.681641 -0.825439)" fill="white" fill-opacity="0"/>
		</clipPath>
		<linearGradient x1="121.681641" y1="-0.825439" x2="121.681641" y2="19.174561" id="paint_linear_8_510_0" gradientUnits="userSpaceOnUse">
			<stop stop-color="#4A819F"/>
			<stop offset="1.000000" stop-color="#034681"/>
		</linearGradient>
	</defs>
	<rect id="Без названия (2)" width="20.000000" height="12.492837" transform="translate(-0.318359 2.399658)" fill="#FFFFFF" fill-opacity="0"/>
	<g clip-path="url(#clip8_461)">
		<mask id="mask8_463" mask-type="alpha" maskUnits="userSpaceOnUse" x="-0.317383" y="2.399658" width="20.000000" height="12.492798">
			<path id="Vector" d="M-0.32 2.39L19.68 2.39L19.68 14.89L-0.32 14.89L-0.32 2.39Z" fill="#000000" fill-opacity="1.000000" fill-rule="evenodd"/>
		</mask>
		<g mask="url(#mask8_463)">
			<path id="Vector" d="M19.64 14.24C19.64 14.61 19.34 14.91 18.97 14.91L0.32 14.91C-0.05 14.91 -0.35 14.61 -0.35 14.24L-0.35 3.08C-0.35 2.72 -0.05 2.42 0.32 2.42L18.97 2.42C19.34 2.42 19.64 2.72 19.64 3.08L19.64 14.24Z" fill="#14477C" fill-opacity="1.000000" fill-rule="evenodd"/>
			<path id="Vector" d="M12.04 12.25L12.23 12.24L12.41 12.23L12.59 12.2L12.77 12.17L12.94 12.13L13.11 12.09L13.28 12.03L13.44 11.96L13.6 11.89L13.76 11.81L13.91 11.73L14.05 11.63L14.19 11.53L14.33 11.43L14.46 11.31L14.58 11.19L14.7 11.07L14.81 10.94L14.92 10.8L15.02 10.67L15.11 10.52L15.2 10.37L15.28 10.21L15.35 10.05L15.42 9.89L15.48 9.72L15.52 9.55L15.56 9.38L15.6 9.2L15.62 9.02L15.63 8.84L15.64 8.66L15.63 8.47L15.62 8.29L15.6 8.11L15.56 7.94L15.52 7.76L15.48 7.59L15.42 7.42L15.35 7.26L15.28 7.11L15.2 6.95L15.11 6.8L15.02 6.65L14.92 6.52L14.81 6.38L14.7 6.25L14.58 6.13L14.46 6.01L14.33 5.9L14.19 5.79L14.05 5.69L13.91 5.6L13.76 5.51L13.6 5.43L13.44 5.36L13.28 5.3L13.11 5.24L12.94 5.19L12.77 5.15L12.59 5.12L12.41 5.1L12.23 5.08L12.04 5.08L11.86 5.08L11.68 5.1L11.5 5.12L11.32 5.15L11.15 5.19L10.98 5.24L10.81 5.3L10.65 5.36L10.49 5.43L10.34 5.51L10.19 5.6L10.04 5.69L9.9 5.79L9.77 5.9L9.64 6.01L9.51 6.13L9.39 6.25L9.28 6.38L9.17 6.52L9.08 6.65L8.98 6.8L8.9 6.95L8.82 7.11L8.75 7.26L8.68 7.42L8.63 7.59L8.58 7.76L8.54 7.94L8.51 8.11L8.48 8.29L8.47 8.47L8.47 8.66L8.47 8.84L8.48 9.02L8.51 9.2L8.54 9.38L8.58 9.55L8.63 9.72L8.68 9.89L8.75 10.05L8.82 10.21L8.9 10.37L8.98 10.52L9.08 10.67L9.17 10.8L9.28 10.94L9.39 11.07L9.51 11.19L9.64 11.31L9.77 11.43L9.9 11.53L10.04 11.63L10.19 11.73L10.34 11.81L10.49 11.89L10.65 11.96L10.81 12.03L10.98 12.09L11.15 12.13L11.32 12.17L11.5 12.2L11.68 12.23L11.86 12.24L12.04 12.25Z" fill="#FBB230" fill-opacity="1.000000" fill-rule="evenodd"/>
			<path id="Vector" d="M7.25 12.25L7.43 12.24L7.61 12.23L7.79 12.2L7.97 12.17L8.14 12.13L8.32 12.09L8.48 12.03L8.64 11.96L8.8 11.89L8.95 11.81L9.1 11.73L9.25 11.63L9.39 11.53L9.52 11.43L9.66 11.31L9.78 11.19L9.9 11.07L10.01 10.94L10.12 10.8L10.21 10.67L10.31 10.52L10.39 10.37L10.47 10.21L10.55 10.05L10.61 9.89L10.66 9.72L10.71 9.55L10.76 9.38L10.79 9.2L10.81 9.02L10.82 8.84L10.83 8.66L10.82 8.47L10.81 8.29L10.79 8.11L10.76 7.94L10.71 7.76L10.66 7.59L10.61 7.42L10.55 7.26L10.47 7.11L10.39 6.95L10.31 6.8L10.21 6.65L10.12 6.52L10.01 6.38L9.9 6.25L9.78 6.13L9.66 6.01L9.52 5.9L9.39 5.79L9.25 5.69L9.1 5.6L8.95 5.51L8.8 5.43L8.64 5.36L8.48 5.3L8.32 5.24L8.14 5.19L7.97 5.15L7.79 5.12L7.61 5.1L7.43 5.08L7.25 5.08L7.06 5.08L6.88 5.1L6.7 5.12L6.52 5.15L6.35 5.19L6.18 5.24L6.01 5.3L5.85 5.36L5.69 5.43L5.54 5.51L5.39 5.6L5.24 5.69L5.1 5.79L4.96 5.9L4.83 6.01L4.71 6.13L4.59 6.25L4.48 6.38L4.37 6.52L4.27 6.65L4.18 6.8L4.09 6.95L4.01 7.11L3.94 7.26L3.87 7.42L3.82 7.59L3.77 7.76L3.73 7.94L3.7 8.11L3.67 8.29L3.66 8.47L3.66 8.66L3.66 8.84L3.67 9.02L3.7 9.2L3.73 9.38L3.77 9.55L3.82 9.72L3.87 9.89L3.94 10.05L4.01 10.21L4.09 10.37L4.18 10.52L4.27 10.67L4.37 10.8L4.48 10.94L4.59 11.07L4.71 11.19L4.83 11.31L4.96 11.43L5.1 11.53L5.24 11.63L5.39 11.73L5.54 11.81L5.69 11.89L5.85 11.96L6.01 12.03L6.18 12.09L6.35 12.13L6.52 12.17L6.7 12.2L6.88 12.23L7.06 12.24L7.25 12.25Z" fill="#EB2230" fill-opacity="1.000000" fill-rule="evenodd"/>
			<path id="Vector" d="M9.23 6.45L11.13 6.45L11.13 6.26L9.39 6.26L9.23 6.45Z" fill="#FBB230" fill-opacity="1.000000" fill-rule="evenodd"/>
			<path id="Vector" d="M8.94 6.88L11.13 6.88L11.13 6.69L9.06 6.69L8.94 6.88Z" fill="#FBB230" fill-opacity="1.000000" fill-rule="evenodd"/>
			<path id="Vector" d="M8.73 7.32L11.13 7.32L11.13 7.12L8.81 7.12L8.73 7.32Z" fill="#FBB230" fill-opacity="1.000000" fill-rule="evenodd"/>
			<path id="Vector" d="M8.58 7.75L11.13 7.75L11.13 7.56L8.64 7.56L8.58 7.75Z" fill="#FBB230" fill-opacity="1.000000" fill-rule="evenodd"/>
			<path id="Vector" d="M8.67 9.84L11.14 9.84L11.14 9.65L8.61 9.65L8.67 9.84Z" fill="#FBB230" fill-opacity="1.000000" fill-rule="evenodd"/>
			<path id="Vector" d="M8.85 10.27L11.14 10.27L11.14 10.08L8.76 10.08L8.85 10.27Z" fill="#FBB230" fill-opacity="1.000000" fill-rule="evenodd"/>
			<path id="Vector" d="M9.11 10.71L11.14 10.71L11.14 10.51L8.98 10.51L9.11 10.71Z" fill="#FBB230" fill-opacity="1.000000" fill-rule="evenodd"/>
			<path id="Vector" d="M9.46 11.14L11.14 11.14L11.14 10.94L9.29 10.94L9.46 11.14Z" fill="#FBB230" fill-opacity="1.000000" fill-rule="evenodd"/>
			<path id="Vector" d="M8.5 8.18L11.13 8.18L11.13 7.99L8.53 7.99L8.5 8.18Z" fill="#FBB230" fill-opacity="1.000000" fill-rule="evenodd"/>
			<path id="Vector" d="M10.1 9.41L11.11 9.41L11.11 9.22L10.14 9.22L10.1 9.41Z" fill="#FBB230" fill-opacity="1.000000" fill-rule="evenodd"/>
			<path id="Vector" d="M10.18 8.98L11.11 8.98L11.11 8.78L10.22 8.78L10.18 8.98Z" fill="#FBB230" fill-opacity="1.000000" fill-rule="evenodd"/>
			<path id="Vector" d="M8.43 8.78L8.69 8.78L8.69 8.98L8.44 8.98L8.43 8.78Z" fill="#FBB230" fill-opacity="1.000000" fill-rule="evenodd"/>
			<path id="Vector" d="M15.29 10.68C15.39 10.68 15.46 10.76 15.46 10.85C15.46 10.94 15.39 11.01 15.29 11.01C15.2 11.01 15.12 10.94 15.12 10.85C15.12 10.76 15.2 10.68 15.29 10.68ZM15.29 10.71C15.37 10.71 15.43 10.77 15.43 10.85C15.43 10.92 15.37 10.99 15.29 10.99C15.22 10.99 15.15 10.92 15.15 10.85C15.15 10.77 15.22 10.71 15.29 10.71Z" fill="#FBB230" fill-opacity="1.000000" fill-rule="evenodd"/>
			<path id="Vector" d="M15.23 10.92L15.23 10.78L15.29 10.78C15.3 10.78 15.31 10.78 15.32 10.78C15.33 10.79 15.33 10.79 15.34 10.79C15.34 10.8 15.34 10.81 15.34 10.82C15.34 10.83 15.34 10.84 15.34 10.84C15.33 10.85 15.32 10.85 15.31 10.86C15.31 10.86 15.32 10.86 15.32 10.87C15.32 10.87 15.33 10.88 15.34 10.89L15.35 10.92L15.32 10.92L15.3 10.89C15.29 10.88 15.29 10.87 15.28 10.87C15.28 10.86 15.28 10.86 15.28 10.86C15.27 10.86 15.27 10.86 15.26 10.86L15.26 10.86L15.26 10.92L15.23 10.92ZM15.26 10.84L15.28 10.84C15.29 10.84 15.3 10.84 15.3 10.83C15.31 10.83 15.31 10.83 15.31 10.83C15.31 10.83 15.31 10.82 15.31 10.82C15.31 10.82 15.31 10.81 15.31 10.81C15.31 10.8 15.3 10.8 15.3 10.8C15.3 10.8 15.29 10.8 15.28 10.8L15.26 10.8L15.26 10.84L15.26 10.84Z" fill="#FBB230" fill-opacity="1.000000" fill-rule="nonzero"/>
			<path id="Vector" d="M15.25 9.26C15.35 9.26 15.42 9.34 15.42 9.43C15.42 9.53 15.35 9.6 15.25 9.6C15.16 9.6 15.08 9.53 15.08 9.43C15.08 9.34 15.16 9.26 15.25 9.26ZM15.25 9.29C15.33 9.29 15.4 9.36 15.4 9.43C15.4 9.51 15.33 9.58 15.25 9.58C15.17 9.58 15.11 9.51 15.11 9.43C15.11 9.36 15.17 9.29 15.25 9.29Z" fill="#FFFFFF" fill-opacity="1.000000" fill-rule="evenodd"/>
			<path id="Vector" d="M15.19 9.51L15.19 9.37L15.25 9.37C15.26 9.37 15.28 9.37 15.28 9.37C15.29 9.37 15.29 9.38 15.3 9.38C15.3 9.39 15.31 9.4 15.31 9.4C15.31 9.41 15.3 9.42 15.29 9.43C15.29 9.44 15.28 9.44 15.27 9.44C15.27 9.45 15.28 9.45 15.28 9.46C15.29 9.46 15.29 9.47 15.3 9.48L15.32 9.51L15.28 9.51L15.26 9.47C15.25 9.46 15.25 9.46 15.25 9.46C15.24 9.45 15.24 9.45 15.24 9.45C15.23 9.45 15.23 9.45 15.22 9.45L15.22 9.45L15.22 9.5L15.19 9.51ZM15.22 9.43L15.24 9.43C15.25 9.43 15.26 9.43 15.26 9.42C15.27 9.42 15.27 9.42 15.27 9.42C15.28 9.41 15.28 9.41 15.28 9.41C15.28 9.4 15.27 9.4 15.27 9.4C15.27 9.39 15.26 9.39 15.26 9.39C15.26 9.39 15.25 9.39 15.24 9.39L15.22 9.39L15.22 9.43Z" fill="#FFFFFF" fill-opacity="1.000000" fill-rule="nonzero"/>
			<path id="Vector" d="M12.84 9.53L13.08 8.25L13.39 8.25L13.43 8.39C13.48 8.33 13.58 8.25 13.76 8.25L13.67 8.59C13.59 8.59 13.46 8.58 13.35 8.83C13.28 9.01 13.24 9.32 13.2 9.53L12.84 9.53Z" fill="#FFFFFF" fill-opacity="1.000000" fill-rule="evenodd"/>
			<path id="Vector" d="M8.24 7.94L8.57 7.94L8.5 8.27L8.69 8.27L8.63 8.54L8.46 8.54L8.37 9.04C8.35 9.14 8.37 9.23 8.56 9.19L8.52 9.47C8.32 9.63 7.91 9.52 7.97 9.14L8.24 7.94Z" fill="#FFFFFF" fill-opacity="1.000000" fill-rule="evenodd"/>
			<path id="Vector" d="M9.74 8.97C9.78 8.76 9.87 8.25 9.27 8.25C8.71 8.25 8.63 8.82 8.63 8.89C8.61 8.97 8.61 9.53 9.21 9.53C9.36 9.53 9.57 9.51 9.67 9.47L9.72 9.21C9.67 9.23 9.48 9.25 9.33 9.25C9.19 9.25 8.97 9.25 9.01 8.97L9.74 8.97Z" fill="#FFFFFF" fill-opacity="1.000000" fill-rule="evenodd"/>
			<path id="Vector" d="M5.65 9.53L5.95 7.99L5.36 7.99L4.95 8.93L4.87 7.99L4.33 7.99L4.03 9.53L4.37 9.53L4.59 8.42L4.68 9.53L5 9.53L5.49 8.44L5.29 9.53L5.65 9.53Z" fill="#FFFFFF" fill-opacity="1.000000" fill-rule="evenodd"/>
			<path id="Vector" d="M6.04 8.29L5.98 8.57C6.08 8.57 6.3 8.54 6.41 8.54C6.53 8.54 6.68 8.52 6.62 8.71C6.53 8.71 5.91 8.61 5.81 9.16C5.76 9.52 6.19 9.65 6.45 9.47L6.49 9.55L6.81 9.55L6.94 8.86C7.08 8.23 6.48 8.22 6.04 8.29Z" fill="#FFFFFF" fill-opacity="1.000000" fill-rule="evenodd"/>
			<path id="Vector" d="M11.63 8.4C11.54 8.35 11.49 8.35 11.38 8.35C11.28 8.35 11.03 8.46 11 8.74C10.94 9.09 11.17 9.25 11.51 9.14L11.6 9.44C11.03 9.73 10.48 9.29 10.66 8.6C10.81 8.07 11.5 7.76 11.84 8.19L11.63 8.4Z" fill="#FFFFFF" fill-opacity="1.000000" fill-rule="evenodd"/>
			<path id="Vector" d="M14.61 8.4C13.69 7.71 13.33 9.53 14.04 9.53C14.16 9.53 14.27 9.48 14.34 9.44L14.38 9.53L14.76 9.53L15.06 7.92L14.7 7.92L14.61 8.4Z" fill="#FFFFFF" fill-opacity="1.000000" fill-rule="evenodd"/>
			<path id="Vector" d="M11.9 8.29L11.84 8.57C11.94 8.57 12.16 8.54 12.28 8.54C12.39 8.54 12.52 8.52 12.48 8.71C12.39 8.71 11.77 8.61 11.68 9.16C11.64 9.42 11.86 9.55 12.03 9.55C12.2 9.55 12.26 9.51 12.31 9.47L12.35 9.55L12.67 9.55L12.8 8.86C12.94 8.23 12.34 8.22 11.9 8.29Z" fill="#FFFFFF" fill-opacity="1.000000" fill-rule="evenodd"/>
			<path id="Vector" d="M9.01 8.72L9.44 8.72C9.49 8.38 9.08 8.45 9.01 8.72Z" fill="#EB2230" fill-opacity="1.000000" fill-rule="evenodd"/>
			<path id="Vector" d="M6.57 8.97C6.51 8.97 6.38 8.93 6.27 9.01C6.15 9.08 6.12 9.21 6.25 9.25C6.36 9.29 6.51 9.21 6.55 9.1L6.57 8.97Z" fill="#EB2230" fill-opacity="1.000000" fill-rule="evenodd"/>
			<path id="Vector" d="M14.44 8.61C14.33 8.46 14.08 8.57 14.01 8.86C13.95 9.04 14.06 9.17 14.18 9.17C14.41 9.17 14.56 8.79 14.44 8.61Z" fill="#FBB230" fill-opacity="1.000000" fill-rule="evenodd"/>
			<path id="Vector" d="M12.45 8.97C12.39 8.97 12.26 8.93 12.15 9.01C12.03 9.08 12 9.21 12.13 9.25C12.24 9.29 12.41 9.21 12.43 9.1L12.45 8.97Z" fill="#FBB230" fill-opacity="1.000000" fill-rule="evenodd"/>
			<path id="Vector" d="M9.74 9.55L9.76 9.42L9.99 8.27L10.29 8.27L10.32 8.4C10.38 8.35 10.47 8.27 10.66 8.27L10.57 8.61C10.5 8.61 10.35 8.6 10.23 8.9C10.17 9.07 10.13 9.36 10.1 9.55L9.74 9.55Z" fill="#FFFFFF" fill-opacity="1.000000" fill-rule="evenodd"/>
			<path id="Vector" d="M7.93 8.58L7.91 8.58L7.89 8.58L7.88 8.58L7.87 8.57L7.85 8.57L7.83 8.57C7.77 8.56 7.71 8.56 7.64 8.56C7.47 8.58 7.4 8.69 7.54 8.77C7.66 8.84 7.75 8.83 7.83 8.9C8 9.06 7.91 9.36 7.72 9.48L7.69 9.49L7.65 9.51L7.61 9.52L7.57 9.53C7.39 9.56 7.15 9.55 6.97 9.49L7.02 9.24C7.16 9.27 7.4 9.34 7.5 9.26C7.63 9.18 7.52 9.08 7.43 9.04L7.38 9.02L7.34 9.01C6.98 8.84 7.06 8.41 7.4 8.32C7.53 8.29 7.67 8.29 7.81 8.3L7.83 8.3C7.87 8.31 7.9 8.31 7.93 8.32L7.94 8.32L7.95 8.32L7.97 8.32L7.97 8.33L7.99 8.33L7.93 8.58Z" fill="#FFFFFF" fill-opacity="1.000000" fill-rule="evenodd"/>
		</g>
	</g>
	<rect id="Без названия (1)" width="20.000000" height="20.000000" transform="translate(27.681641 -0.825439)" fill="#FFFFFF" fill-opacity="0"/>
	<g clip-path="url(#clip8_499)">
		<path id="Vector" d="M47.68 9.17C47.68 14.69 43.2 19.17 37.68 19.17C32.15 19.17 27.68 14.69 27.68 9.17C27.68 3.65 32.15 -0.83 37.68 -0.83C43.2 -0.83 47.68 3.65 47.68 9.17Z" fill="#26A17B" fill-opacity="1.000000" fill-rule="evenodd"/>
		<path id="Vector" d="M43.14 6.84C42.64 6.48 42.11 6.1 41.59 5.73C41.57 5.72 41.56 5.71 41.55 5.7C41.49 5.65 41.42 5.61 41.34 5.59L41.34 5.58C39.94 5.24 38.54 4.89 37.14 4.55L33.4 3.63L33.31 3.6C33.19 3.57 33.06 3.53 32.93 3.55C32.89 3.55 32.85 3.57 32.82 3.59L32.78 3.62C32.74 3.66 32.71 3.72 32.69 3.78L32.68 3.8L32.68 3.94L32.68 3.96C33.47 6.2 34.28 8.47 35.06 10.67C35.66 12.36 36.28 14.12 36.89 15.84C36.93 15.96 37.04 16.03 37.17 16.04L37.2 16.04C37.26 16.05 37.32 16.03 37.37 16C37.42 15.98 37.46 15.93 37.49 15.88L39.78 12.5C40.33 11.68 40.89 10.85 41.45 10.03L42.13 9.01C42.51 8.46 42.89 7.88 43.28 7.32L43.3 7.3L43.3 7.26C43.31 7.16 43.31 6.95 43.14 6.84ZM40.46 8.07C39.93 8.35 39.38 8.65 38.83 8.94L39.79 7.89C40.19 7.45 40.61 6.99 41.02 6.55L41.03 6.54C41.06 6.49 41.11 6.45 41.15 6.4C41.18 6.37 41.22 6.34 41.25 6.3C41.47 6.45 41.68 6.6 41.89 6.75C42.04 6.86 42.19 6.97 42.35 7.08C41.72 7.4 41.09 7.73 40.46 8.07ZM39.08 7.93C38.67 8.38 38.24 8.85 37.82 9.31C36.99 8.29 36.17 7.28 35.34 6.27L34.23 4.92L34.23 4.91C34.14 4.82 34.06 4.71 33.98 4.61C33.93 4.55 33.87 4.48 33.82 4.41C34.15 4.5 34.49 4.58 34.82 4.66C35.11 4.73 35.42 4.81 35.72 4.88L40.74 6.12C40.19 6.72 39.63 7.34 39.08 7.93ZM37.63 13.64C37.66 13.33 37.7 13.01 37.73 12.7C37.75 12.45 37.78 12.2 37.8 11.96C37.84 11.57 37.89 11.16 37.92 10.77L37.93 10.7C37.96 10.44 37.99 10.18 38.01 9.92C38.04 9.9 38.07 9.89 38.11 9.87C38.15 9.85 38.2 9.84 38.24 9.81C38.91 9.45 39.57 9.1 40.24 8.75C40.91 8.4 41.6 8.03 42.27 7.67C41.66 8.58 41.04 9.48 40.43 10.39C39.92 11.16 39.39 11.94 38.86 12.72C38.65 13.03 38.43 13.35 38.23 13.65C38 13.99 37.76 14.34 37.53 14.69C37.56 14.34 37.59 13.98 37.63 13.64ZM33.6 5.1C33.57 5 33.53 4.89 33.49 4.79C34.27 5.74 35.06 6.7 35.82 7.64C36.22 8.12 36.61 8.6 37.01 9.09C37.09 9.18 37.17 9.27 37.24 9.37C37.34 9.49 37.44 9.61 37.54 9.73C37.51 10.03 37.48 10.34 37.45 10.63C37.43 10.84 37.41 11.04 37.38 11.25L37.38 11.25C37.38 11.38 37.36 11.52 37.34 11.65L37.28 12.23L37.27 12.25C37.22 12.84 37.16 13.44 37.1 14.02C37.07 14.26 37.05 14.5 37.02 14.75C37.01 14.71 36.99 14.66 36.98 14.62C36.93 14.5 36.89 14.38 36.85 14.26L36.54 13.39L33.6 5.1L33.6 5.1Z" fill="#FFFFFF" fill-opacity="1.000000" fill-rule="nonzero"/>
	</g>
	<rect id="Без названия (3)" width="20.000000" height="20.000000" transform="translate(55.681641 -0.825439)" fill="#FFFFFF" fill-opacity="0"/>
	<g clip-path="url(#clip8_503)">
		<path id="Vector" d="M65.68 19.17C71.2 19.17 75.68 14.69 75.68 9.17C75.68 3.65 71.2 -0.83 65.68 -0.83C60.15 -0.83 55.68 3.65 55.68 9.17C55.68 14.69 60.15 19.17 65.68 19.17Z" fill="#8DC351" fill-opacity="1.000000" fill-rule="nonzero"/>
		<path id="Vector" d="M70.36 7.48C69.89 7.24 69.32 7.19 68.66 7.33C69.23 6.59 69.25 5.77 68.72 4.9C68.53 4.58 68.3 4.33 68.02 4.16C67.75 3.99 67.45 3.89 67.11 3.87C66.78 3.84 66.44 3.87 66.09 3.93C65.75 4 65.37 4.11 64.95 4.27L64.04 2.36L62.87 2.91L63.75 4.77C63.55 4.87 63.24 5.02 62.83 5.23L61.94 3.35L60.77 3.91L61.68 5.82C61.52 5.91 61.27 6.03 60.95 6.18L59.34 6.94L59.93 8.19L60.77 7.79C61.16 7.6 61.47 7.67 61.7 7.98L62.74 10.16C62.79 10.14 62.83 10.12 62.86 10.11L62.74 10.17L64.2 13.22C64.28 13.5 64.2 13.7 63.94 13.82L63.1 14.22L63.53 15.72L65.05 15C65.14 14.95 65.28 14.89 65.47 14.8C65.65 14.72 65.79 14.66 65.88 14.61L66.8 16.55L67.97 15.99L67.06 14.08C67.28 13.98 67.59 13.84 67.99 13.64L68.9 15.55L70.07 14.99L69.15 13.06C69.55 12.84 69.9 12.62 70.2 12.42C70.49 12.21 70.76 11.97 70.99 11.71C71.23 11.45 71.4 11.19 71.52 10.92C71.63 10.65 71.69 10.34 71.68 10.01C71.68 9.67 71.61 9.32 71.48 8.94C71.21 8.2 70.84 7.71 70.36 7.48ZM63.51 6.58C63.55 6.57 63.65 6.52 63.81 6.44C63.97 6.36 64.11 6.29 64.22 6.23C64.32 6.18 64.47 6.12 64.67 6.04C64.86 5.97 65.02 5.92 65.16 5.88C65.3 5.84 65.46 5.82 65.64 5.81C65.82 5.79 65.97 5.81 66.11 5.85C66.24 5.89 66.37 5.96 66.49 6.06C66.61 6.16 66.72 6.29 66.8 6.46C66.86 6.6 66.9 6.74 66.91 6.88C66.92 7.01 66.9 7.14 66.85 7.27C66.79 7.39 66.73 7.5 66.66 7.61C66.59 7.71 66.49 7.82 66.36 7.92C66.23 8.03 66.11 8.12 66.01 8.19C65.91 8.27 65.78 8.35 65.62 8.43C65.45 8.52 65.33 8.59 65.24 8.63C65.16 8.67 65.04 8.73 64.89 8.8C64.74 8.87 64.65 8.91 64.63 8.92L63.51 6.58ZM69.17 10.23C69.18 10.37 69.17 10.5 69.13 10.63C69.1 10.75 69.03 10.87 68.94 11C68.85 11.12 68.76 11.23 68.66 11.33C68.56 11.42 68.44 11.53 68.29 11.63C68.14 11.74 68.01 11.83 67.89 11.9C67.77 11.98 67.63 12.06 67.46 12.15C67.29 12.24 67.16 12.3 67.06 12.35C66.96 12.4 66.84 12.45 66.69 12.52C66.55 12.59 66.45 12.63 66.41 12.65L65.19 10.08C65.23 10.06 65.35 10 65.54 9.9C65.74 9.8 65.9 9.72 66.03 9.66C66.16 9.6 66.33 9.53 66.56 9.44C66.79 9.35 66.99 9.28 67.16 9.24C67.32 9.19 67.51 9.16 67.72 9.14C67.93 9.12 68.11 9.13 68.27 9.16C68.42 9.2 68.57 9.27 68.71 9.38C68.86 9.49 68.97 9.63 69.06 9.81C69.13 9.95 69.17 10.09 69.17 10.23Z" fill="#FFFFFF" fill-opacity="1.000000" fill-rule="nonzero"/>
	</g>
	<rect id="Без названия (4)" width="20.000000" height="20.000000" transform="translate(83.681641 -0.825439)" fill="#FFFFFF" fill-opacity="0"/>
	<g clip-path="url(#clip8_506)">
		<path id="Vector" d="M103.68 9.17C103.68 14.69 99.2 19.17 93.68 19.17C88.15 19.17 83.68 14.69 83.68 9.17C83.68 3.65 88.15 -0.83 93.68 -0.83C99.2 -0.83 103.68 3.65 103.68 9.17Z" fill="#EB0029" fill-opacity="1.000000" fill-rule="evenodd"/>
		<path id="Vector" d="M89.16 4.53C89.25 4.77 93.11 14.47 93.12 14.48C93.13 14.49 98.66 7.79 98.68 7.75C98.68 7.73 96.76 5.9 96.7 5.88C96.68 5.87 94.99 5.55 92.93 5.18C90.88 4.8 89.19 4.49 89.17 4.48C89.14 4.48 89.14 4.48 89.16 4.53ZM93.3 5.78C94.78 6.05 96 6.28 96 6.28C96 6.3 93.98 7.98 93.92 8.02C93.89 8.03 93.65 7.85 92.24 6.68C90.36 5.13 90.55 5.28 90.57 5.28C90.58 5.28 91.81 5.5 93.3 5.78ZM91.93 7.11C93.15 8.12 93.66 8.55 93.66 8.57C93.65 8.59 93.53 9.58 93.39 10.78C93.24 11.99 93.12 12.98 93.11 13C93.11 13.01 92.45 11.38 91.65 9.37C90.85 7.36 90.19 5.7 90.18 5.69C90.17 5.67 90.18 5.66 90.19 5.67C90.2 5.67 90.98 6.32 91.93 7.11ZM97.18 7.03C97.5 7.33 97.75 7.58 97.75 7.58C97.74 7.6 94.66 8.15 94.63 8.14C94.61 8.14 96.57 6.49 96.6 6.49C96.6 6.49 96.87 6.74 97.18 7.03ZM97.64 8.19C97.55 8.32 93.66 13.03 93.65 13.01C93.65 13 93.76 12.04 93.9 10.88L94.16 8.77L95.87 8.46C96.8 8.29 97.59 8.15 97.62 8.15C97.66 8.15 97.66 8.15 97.64 8.19Z" fill="#FFFFFF" fill-opacity="1.000000" fill-rule="evenodd"/>
	</g>
	<rect id="Без названия" width="20.000000" height="20.000000" transform="translate(111.681641 -0.825439)" fill="#FFFFFF" fill-opacity="0"/>
	<g clip-path="url(#clip8_509)">
		<path id="Vector" d="M121.68 19.17C127.2 19.17 131.68 14.69 131.68 9.17C131.68 3.65 127.2 -0.83 121.68 -0.83C116.15 -0.83 111.68 3.65 111.68 9.17C111.68 14.69 116.15 19.17 121.68 19.17Z" fill="url(#paint_linear_8_510_0)" fill-opacity="1.000000" fill-rule="nonzero"/>
		<path id="Vector" d="M121.68 11.29L117.84 9.47L121.68 16.17L125.51 9.47L121.68 11.29Z" fill="#FFFFFF" fill-opacity="1.000000" fill-rule="nonzero"/>
		<path id="Vector" d="M125.09 8.11L121.68 2.17L118.25 8.11L121.68 6.49L125.09 8.11Z" fill="#FFFFFF" fill-opacity="1.000000" fill-rule="nonzero"/>
		<path id="Vector" d="M118.55 8.88L121.68 10.36L124.81 8.88L121.68 7.4L118.55 8.88Z" fill="#FFFFFF" fill-opacity="1.000000" fill-rule="nonzero"/>
	</g>
	<rect id="binance-usd-busd-logo" width="19.940140" height="20.000004" transform="translate(139.681641 -0.825439)" fill="#FFFFFF" fill-opacity="0"/>
	<g clip-path="url(#clip8_514)">
		<path id="Vector" d="M149.65 -0.79L152.11 1.73L145.91 7.92L143.45 5.46L149.65 -0.79Z" fill="#F0B90B" fill-opacity="1.000000" fill-rule="nonzero"/>
		<path id="Vector" d="M152.11 1.73L145.91 7.92L143.45 5.46L149.65 -0.79L152.11 1.73Z" stroke="#F0B90B" stroke-opacity="1.000000" stroke-width="0.059273"/>
		<path id="Vector" d="M153.38 2.95L155.84 5.47L145.91 15.39L143.45 12.93L153.38 2.95Z" fill="#F0B90B" fill-opacity="1.000000" fill-rule="nonzero"/>
		<path id="Vector" d="M155.84 5.47L145.91 15.39L143.45 12.93L153.38 2.95L155.84 5.47Z" stroke="#F0B90B" stroke-opacity="1.000000" stroke-width="0.059273"/>
		<path id="Vector" d="M142.18 6.68L144.64 9.2L142.18 11.66L139.72 9.2L142.18 6.68Z" fill="#F0B90B" fill-opacity="1.000000" fill-rule="nonzero"/>
		<path id="Vector" d="M144.64 9.2L142.18 11.66L139.72 9.2L142.18 6.68L144.64 9.2Z" stroke="#F0B90B" stroke-opacity="1.000000" stroke-width="0.059273"/>
		<path id="Vector" d="M157.12 6.68L159.58 9.2L149.65 19.13L147.19 16.67L157.12 6.68Z" fill="#F0B90B" fill-opacity="1.000000" fill-rule="nonzero"/>
		<path id="Vector" d="M159.58 9.2L149.65 19.13L147.19 16.67L157.12 6.68L159.58 9.2Z" stroke="#F0B90B" stroke-opacity="1.000000" stroke-width="0.059273"/>
	</g>
</svg>
