<svg width="40.000000" height="40.000000" viewBox="0 0 40 40" fill="none" xmlns="http://www.w3.org/2000/svg" xmlns:xlink="http://www.w3.org/1999/xlink">
	<desc>
			Created with Pixso.
	</desc>
	<defs>
		<clipPath id="clip8_599">
			<rect id="Frame 541" rx="20.000000" width="40.000000" height="40.000000" transform="translate(-0.318359 -0.956421)" fill="white" fill-opacity="0"/>
		</clipPath>
	</defs>
	<rect id="Frame 541" rx="20.000000" width="40.000000" height="40.000000" transform="translate(-0.318359 -0.956421)" fill="#F7F7F7" fill-opacity="1.000000"/>
	<g clip-path="url(#clip8_599)">
		<rect id="Iconex/Light/Danger" width="20.000000" height="20.000000" transform="translate(9.681641 9.043579)" fill="#FFFFFF" fill-opacity="0"/>
		<path id="Rectangle 74" d="M14.32 26.96C12.68 26.96 11.34 25.62 11.34 23.98C11.34 23.47 11.47 22.97 11.72 22.53L16.87 13.25C17.33 12.43 18.12 11.85 19.05 11.66C19.46 11.58 19.89 11.58 20.31 11.66C21.23 11.85 22.02 12.43 22.48 13.25L27.64 22.53C27.88 22.97 28.01 23.47 28.01 23.98C28.01 25.62 26.68 26.96 25.03 26.96L14.32 26.96Z" stroke="#F23152" stroke-opacity="1.000000" stroke-width="1.500000"/>
		<path id="Line" d="M19.68 19.87L19.68 16.54" stroke="#F23152" stroke-opacity="1.000000" stroke-width="1.500000" stroke-linejoin="round" stroke-linecap="round"/>
		<path id="Line" d="M19.68 22.79L19.68 22.37" stroke="#F23152" stroke-opacity="1.000000" stroke-width="1.500000" stroke-linejoin="round" stroke-linecap="round"/>
	</g>
</svg>
