<svg width="48.000000" height="48.000000" viewBox="0 0 48 48" fill="none" xmlns="http://www.w3.org/2000/svg" xmlns:xlink="http://www.w3.org/1999/xlink">
	<desc>
			Created with Pixso.
	</desc>
	<defs>
		<clipPath id="clip8_447">
			<rect id="Frame 17" rx="24.000000" width="48.000000" height="48.000000" fill="white" fill-opacity="0"/>
		</clipPath>
	</defs>
	<rect id="Frame 17" rx="24.000000" width="48.000000" height="48.000000" fill="#F7F7F7" fill-opacity="1.000000"/>
	<g clip-path="url(#clip8_447)">
		<path id="Vector" d="M22.17 20.36C22.17 19.58 22.83 19.29 23.91 19.29C25.47 19.29 27.44 19.74 28.99 20.55L28.99 15.9C27.29 15.25 25.61 15 23.91 15C19.76 15 17 17.09 17 20.59C17 26.05 24.77 25.18 24.77 27.54C24.77 28.45 23.96 28.74 22.81 28.74C21.11 28.74 18.94 28.07 17.22 27.16L17.22 31.87C19.12 32.66 21.05 33 22.81 33C27.07 33 30 30.96 30 27.42C29.97 21.52 22.17 22.57 22.17 20.36Z" fill="#635BFF" fill-opacity="1.000000" fill-rule="evenodd"/>
	</g>
</svg>
