<svg width="48.000000" height="48.000000" viewBox="0 0 48 48" fill="none" xmlns="http://www.w3.org/2000/svg" xmlns:xlink="http://www.w3.org/1999/xlink">
	<desc>
			Created with Pixso.
	</desc>
	<defs>
		<clipPath id="clip8_443">
			<rect id="user" width="24.000000" height="24.000000" transform="translate(12.000000 12.000000)" fill="white" fill-opacity="0"/>
		</clipPath>
		<clipPath id="clip8_442">
			<rect id="Frame 18" rx="24.000000" width="48.000000" height="48.000000" fill="white" fill-opacity="0"/>
		</clipPath>
	</defs>
	<rect id="Frame 18" rx="24.000000" width="48.000000" height="48.000000" fill="#F7F7F7" fill-opacity="1.000000"/>
	<g clip-path="url(#clip8_442)">
		<rect id="user" width="24.000000" height="24.000000" transform="translate(12.000000 12.000000)" fill="#FFFFFF" fill-opacity="0"/>
		<g clip-path="url(#clip8_443)">
			<path id="Vector" d="M24 23C21.79 23 20 21.2 20 19C20 16.79 21.79 15 24 15C26.2 15 28 16.79 28 19C28 21.2 26.2 23 24 23Z" stroke="#939199" stroke-opacity="1.000000" stroke-width="1.500000" stroke-linejoin="round"/>
			<path id="Vector" d="M18 33L18 31C18 29.93 18.42 28.92 19.17 28.17C19.92 27.42 20.93 27 22 27L26 27C27.06 27 28.07 27.42 28.82 28.17C29.57 28.92 30 29.93 30 31L30 33" stroke="#939199" stroke-opacity="1.000000" stroke-width="1.500000" stroke-linejoin="round" stroke-linecap="round"/>
		</g>
	</g>
</svg>
